<?xml version="1.0" encoding="UTF-8"?>
<!DOCTYPE svg PUBLIC "-//W3C//DTD SVG 1.1//EN" "http://www.w3.org/Graphics/SVG/1.1/DTD/svg11.dtd">
<!-- Creator: CorelDRAW 2021 (64-Bit) -->
<svg xmlns="http://www.w3.org/2000/svg" xml:space="preserve" width="124.79mm" height="124.79mm" version="1.1" style="shape-rendering:geometricPrecision; text-rendering:geometricPrecision; image-rendering:optimizeQuality; fill-rule:evenodd; clip-rule:evenodd"
viewBox="0 0 14383.71 14383.71"
 xmlns:xlink="http://www.w3.org/1999/xlink"
 xmlns:xodm="http://www.corel.com/coreldraw/odm/2003">
 <defs>
  <style type="text/css">
   <![CDATA[
    .fil2 {fill:#FFED00}
    .fil0 {fill:black}
    .fil1 {fill:#FEFEFE;fill-rule:nonzero}
    .fil5 {fill:#FEFEFE;fill-rule:nonzero}
    .fil3 {fill:#FEFEFE;fill-rule:nonzero}
    .fil4 {fill:#FFED00;fill-rule:nonzero}
   ]]>
  </style>
 </defs>
 <g id="Слой_x0020_1">
  <metadata id="CorelCorpID_0Corel-Layer"/>
  <g id="_2387067737728">
   <circle class="fil0" cx="7191.86" cy="7191.86" r="7191.86"/>
   <path class="fil1" d="M9886.32 8588.65c37.24,0 69.11,13.43 95.96,40.26 26.83,26.84 40.26,58.72 40.26,95.96 0,38.24 -13.43,70.45 -40.26,97.29 -26.84,26.83 -58.72,40.25 -95.96,40.25 -38.24,0 -70.45,-13.42 -97.29,-40.25 -26.83,-26.84 -40.25,-59.05 -40.25,-97.29 0,-37.24 13.42,-69.11 40.25,-95.96 26.84,-26.83 59.05,-40.26 97.29,-40.26zm981.33 34.22l108.37 0c82.87,0 124.46,28.86 124.46,86.23 0,39.58 -14.75,70.78 -44.27,93.26 -29.86,22.49 -70.46,33.89 -122.47,33.89l-125.81 0c-56.36,0 -94.94,-21.8 -115.08,-65.76 -49.31,43.96 -96.61,65.76 -142.58,65.76l-112.06 0c-72.13,0 -130.5,-25.83 -175.13,-77.17 -44.28,-51.33 -66.43,-118.42 -66.43,-201.63 0,-125.81 43.62,-238.2 130.51,-337.5 86.9,-98.98 185.19,-148.63 294.57,-148.63 84.21,0 145.27,28.52 184.18,85.89 32.88,-49.32 75.83,-73.81 128.84,-73.81 28.85,0 53.01,9.06 72.47,27.51 19.12,18.45 28.85,41.26 28.85,68.11 0,18.44 -5.37,40.58 -15.77,66.09l-10.73 26.5 -141.92 351.27zm-356.64 4.03l24.51 0c54,0 89.91,-22.15 107.69,-66.09l69.11 -170.11c9.05,-22.48 13.75,-40.93 13.75,-56.03 0,-17.79 -8.73,-33.21 -26.16,-46.3 -17.45,-13.08 -38.58,-19.79 -62.74,-19.79 -48.32,0 -95.28,27.85 -140.58,83.54 -45.62,56.03 -68.44,113.73 -68.44,173.45 0,67.44 27.51,101.33 82.86,101.33zm992.74 -4.03l247.6 0c83.21,0 124.81,29.18 124.81,87.23 0,39.59 -14.77,70.79 -43.95,92.94 -29.18,22.14 -70.46,33.21 -123.12,33.21l-457.95 0c-40.27,0 -72.48,-10.06 -96.29,-30.52 -23.82,-20.14 -35.57,-47.65 -35.57,-82.54 0,-33.55 21.81,-71.45 65.76,-114.06l320.74 -309.67 -109.37 3.35 -24.83 0c-71.46,0 -107.36,-29.53 -107.36,-88.57 0,-36.57 14.09,-67.78 42.6,-92.94 28.18,-25.16 62.74,-37.91 103.68,-37.91l24.48 0 305.63 0c91.6,0 137.57,38.92 137.57,116.42 0,39.93 -20.81,80.52 -62.07,121.12l-312.35 301.94z"/>
   <path class="fil1" d="M4167.54 7965.57l46.51 312.68 -83.07 0 -4.41 -56.13 -29.32 0 -4.4 56.13 -84.14 0 41.24 -312.68 117.6 0zm-43.14 201.2c-3.9,-35.44 -7.98,-79.32 -12.32,-131.7 -8.05,60.09 -13.12,103.97 -15.28,131.7l27.61 0zm265.63 -201.2l0 62.46 -60.27 187.76 60.27 0 0 62.45 -149.81 0 0 -45.33 62.65 -204.88 -55.14 0 0 -62.46 142.3 0zm116.22 226.44c0,18.18 0.71,29.38 2.17,33.6 1.52,4.29 4.94,6.4 10.28,6.4 5.46,0 9.03,-2.44 10.55,-7.32 1.51,-4.93 2.31,-16.6 2.31,-34.98l0 -42.69 -25.3 0 0 45zm-81.04 -136.7c0.33,-11.07 0.86,-19.89 1.58,-26.49 1.59,-13.11 6.2,-25.1 14.04,-35.96 7.78,-10.81 18.32,-19.11 31.63,-24.91 13.23,-5.8 28.72,-8.69 46.38,-8.69 16.72,0 31.81,2.75 45.13,8.23 13.37,5.48 24.04,13.64 32.22,24.57 8.1,10.94 12.91,22.86 14.49,35.71 1.51,12.91 2.31,35.44 2.31,67.59l0 53.49c0,31.42 -0.73,53.63 -2.24,66.68 -1.45,13.11 -6.13,25.04 -13.9,35.84 -7.77,10.81 -18.32,19.1 -31.56,24.91 -13.31,5.8 -28.72,8.69 -46.38,8.69 -16.74,0 -31.76,-2.77 -45.13,-8.24 -13.31,-5.46 -24.04,-13.64 -32.15,-24.56 -8.1,-10.94 -12.91,-22.87 -14.5,-35.72 -1.51,-12.84 -2.31,-35.37 -2.31,-67.52l0 -53.49c0,-2.71 0,-5.34 0,-7.91l106.73 0.2 0 -41.51c0,-14.49 -0.8,-23.85 -2.37,-27.87 -1.65,-4.08 -4.94,-6.06 -9.89,-6.06 -4.21,0 -7.45,1.65 -9.68,4.88 -2.24,3.31 -3.35,12.98 -3.35,29.06l0 9.09 -81.04 0zm234.15 -89.73l57.52 0c38.35,0 64.31,1.45 77.87,4.41 13.58,2.97 24.64,10.55 33.21,22.73 8.56,12.11 12.85,31.56 12.85,58.17 0,24.31 -3.03,40.65 -9.09,49.01 -5.99,8.38 -17.92,13.38 -35.71,15.02 16.07,4.02 26.95,9.36 32.47,16.08 5.54,6.65 8.97,12.85 10.28,18.45 1.38,5.59 2.05,21.01 2.05,46.24l0 82.55 -75.51 0 0 -104.03c0,-16.74 -1.31,-27.08 -3.95,-31.1 -2.57,-4.02 -9.42,-5.99 -20.55,-5.99l0 141.12 -81.43 0 0 -312.68zm81.43 53.37l0 69.57c9.09,0 15.41,-1.26 19.04,-3.76 3.62,-2.5 5.46,-10.67 5.46,-24.45l0 -17.19c0,-9.95 -1.78,-16.47 -5.27,-19.57 -3.49,-3.09 -9.95,-4.61 -19.24,-4.61zm147.64 -53.37l80.9 0c25.57,0 44.93,1.98 58.1,5.99 13.17,3.95 23.79,12.06 31.88,24.18 8.11,12.19 12.13,31.76 12.13,58.76 0,18.26 -2.84,30.97 -8.56,38.15 -5.73,7.24 -17.06,12.71 -33.93,16.6 18.85,4.29 31.63,11.33 38.35,21.15 6.72,9.88 10.09,24.97 10.09,45.39l0 28.99c0,21.15 -2.44,36.76 -7.25,46.97 -4.82,10.14 -12.45,17.13 -23,20.89 -10.55,3.76 -32.15,5.6 -64.82,5.6l-93.88 0 0 -312.68zm81.43 53.37l0 69.57c3.42,-0.14 6.05,-0.2 7.96,-0.2 7.77,0 12.78,-1.98 14.89,-5.87 2.18,-3.95 3.23,-15.23 3.23,-33.74 0,-9.81 -0.85,-16.67 -2.64,-20.61 -1.78,-3.9 -4.08,-6.4 -6.92,-7.45 -2.84,-0.99 -8.37,-1.59 -16.53,-1.72zm0 118.19l0 87.75c11.19,-0.39 18.37,-2.18 21.47,-5.39 3.09,-3.24 4.61,-11.2 4.61,-23.85l0 -29.27c0,-13.43 -1.38,-21.53 -4.15,-24.44 -2.77,-2.84 -10.09,-4.41 -21.93,-4.81zm293.3 -171.56l46.51 312.68 -83.08 0 -4.41 -56.13 -29.31 0 -4.41 56.13 -84.13 0 41.24 -312.68 117.6 0zm-43.15 201.2c-3.9,-35.44 -7.98,-79.32 -12.32,-131.7 -8.03,60.09 -13.12,103.97 -15.28,131.7l27.61 0zm269.26 -201.2l-59.29 199.49 0 113.19 -75.11 0 0 -113.19 -57.32 -199.49 74.64 0c11.53,61.2 18.19,102.32 19.84,123.4 4.68,-33.33 12.18,-74.45 22.66,-123.4l74.58 0zm219.85 136.38l-81.43 0 0 -54.29c0,-15.81 -0.86,-25.62 -2.57,-29.58 -1.72,-3.88 -5.53,-5.87 -11.4,-5.87 -6.59,0 -10.8,2.37 -12.58,7.11 -1.79,4.82 -2.71,15.09 -2.71,30.9l0 145.07c0,15.21 0.92,25.09 2.71,29.77 1.78,4.62 5.79,6.93 11.98,6.93 6.01,0 9.95,-2.31 11.8,-6.98 1.84,-4.62 2.77,-15.55 2.77,-32.75l0 -39.33 81.43 0 0 12.18c0,32.41 -2.32,55.41 -6.86,68.9 -4.54,13.58 -14.68,25.44 -30.31,35.65 -15.66,10.21 -34.91,15.28 -57.84,15.28 -23.78,0 -43.41,-4.29 -58.9,-12.91 -15.41,-8.63 -25.69,-20.56 -30.69,-35.85 -5,-15.27 -7.52,-38.21 -7.52,-68.85l0 -91.31c0,-22.53 0.8,-39.39 2.31,-50.66 1.59,-11.26 6.13,-22.13 13.84,-32.54 7.64,-10.42 18.25,-18.65 31.82,-24.64 13.57,-6.01 29.17,-8.96 46.83,-8.96 23.92,0 43.68,4.61 59.29,13.89 15.55,9.22 25.76,20.76 30.71,34.59 4.88,13.84 7.32,35.32 7.32,64.5l0 29.71zm185.59 -136.38l46.51 312.68 -83.08 0 -4.41 -56.13 -29.31 0 -4.41 56.13 -84.13 0 41.24 -312.68 117.6 0zm-43.15 201.2c-3.9,-35.44 -7.98,-79.32 -12.32,-131.7 -8.05,60.09 -13.12,103.97 -15.28,131.7l27.61 0zm301.28 -201.2l0 312.68 -71.16 0 -42.29 -142.18 0 142.18 -67.99 0 0 -312.68 67.99 0 45.46 140.78 0 -140.78 67.99 0zm130.25 0l0 312.68 -81.43 0 0 -312.68 81.43 0zm230.11 0l0 312.68 -71.15 0 -42.29 -142.18 0 142.18 -67.99 0 0 -312.68 67.99 0 45.46 140.78 0 -140.78 67.98 0z"/>
   <path class="fil1" d="M4412.48 8437.64l0 402.25 -114.36 0 -0.31 -271.55 -45.43 271.55 -80.05 0 -47.97 -265.45 -0.31 265.45 -114.36 0 0 -402.25 168.9 0c4.76,24.33 9.95,52.98 15.56,85.69l18.53 102.12 29.75 -187.81 170.06 0zm85.33 0l217.92 0 0 80.35 -87.04 0 0 76.79 81.32 0 0 76.27 -81.32 0 0 88.49 95.93 0 0 80.35 -226.82 0 0 -402.25zm588.29 0l0 402.25 -114.35 0 -67.98 -182.9 0 182.9 -109.28 0 0 -402.25 109.28 0 73.07 181.13 0 -181.13 109.27 0zm363.4 0l-95.31 256.63 0 145.61 -120.7 0 0 -145.61 -92.13 -256.63 119.99 0c18.52,78.74 29.22,131.63 31.86,158.75 7.53,-42.89 19.59,-95.77 36.43,-158.75l119.86 0zm351.74 0l0 268.92c0,30.52 -1.27,51.96 -3.7,64.25 -2.55,12.37 -9.84,25.08 -22.03,38.05 -12.18,13.06 -28.27,22.89 -48.18,29.59 -20.01,6.69 -43.51,10.09 -70.63,10.09 -29.96,0 -56.43,-3.99 -79.3,-11.95 -22.98,-7.96 -40.13,-18.3 -51.47,-31.02 -11.43,-12.81 -18.11,-26.28 -20.23,-40.43 -2.01,-14.15 -3.08,-43.98 -3.08,-89.33l0 -238.16 130.89 0 0 301.73c0,17.54 1.16,28.82 3.49,33.65 2.33,4.92 7.09,7.38 14.19,7.38 8.05,0 13.34,-2.72 15.66,-8.06 2.34,-5.42 3.5,-18.13 3.5,-38.13l0 -296.56 130.87 0zm598.26 0l0 402.25 -114.36 0 -0.32 -271.55 -45.43 271.55 -80.05 0 -47.97 -265.45 -0.31 265.45 -114.36 0 0 -402.25 168.9 0c4.76,24.33 9.95,52.98 15.56,85.69l18.53 102.12 29.75 -187.81 170.07 0zm212.4 291.31c0,23.39 1.16,37.79 3.49,43.22 2.43,5.5 7.94,8.22 16.52,8.22 8.78,0 14.5,-3.14 16.93,-9.41 2.44,-6.36 3.71,-21.36 3.71,-45.01l0 -54.92 -40.65 0 0 57.9zm-130.25 -175.87c0.52,-14.24 1.37,-25.6 2.54,-34.07 2.55,-16.86 9.96,-32.29 22.56,-46.27 12.49,-13.9 29.43,-24.59 50.83,-32.04 21.28,-7.46 46.16,-11.18 74.54,-11.18 26.9,0 51.14,3.55 72.54,10.59 21.49,7.03 38.65,17.54 51.78,31.61 13.02,14.07 20.75,29.42 23.31,45.94 2.43,16.61 3.7,45.59 3.7,86.95l0 68.81c0,40.43 -1.18,69 -3.6,85.77 -2.34,16.87 -9.86,32.22 -22.35,46.12 -12.49,13.89 -29.43,24.57 -50.73,32.03 -21.38,7.46 -46.16,11.19 -74.54,11.19 -26.9,0 -51.04,-3.56 -72.54,-10.6 -21.39,-7.03 -38.65,-17.54 -51.66,-31.61 -13.02,-14.07 -20.77,-29.42 -23.31,-45.94 -2.43,-16.52 -3.71,-45.51 -3.71,-86.86l0 -68.82c0,-3.48 0,-6.87 0,-10.17l171.55 0.25 0 -53.4c0,-18.64 -1.27,-30.67 -3.82,-35.85 -2.64,-5.26 -7.94,-7.79 -15.87,-7.79 -6.79,0 -11.98,2.11 -15.57,6.27 -3.6,4.23 -5.39,16.69 -5.39,37.37l0 11.7 -130.25 0zm382.99 -115.44l92.44 0c61.63,0 103.35,1.87 125.15,5.68 21.82,3.82 39.6,13.57 53.38,29.24 13.76,15.6 20.64,40.6 20.64,74.84 0,31.27 -4.88,52.28 -14.6,63.05 -9.65,10.77 -28.8,17.21 -57.4,19.33 25.84,5.16 43.3,12.03 52.2,20.68 8.9,8.55 14.4,16.52 16.52,23.73 2.22,7.19 3.29,27.03 3.29,59.49l0 106.2 -121.35 0 0 -133.83c0,-21.52 -2.12,-34.83 -6.35,-40 -4.13,-5.18 -15.15,-7.72 -33.03,-7.72l0 181.55 -130.88 0 0 -402.25zm130.88 68.65l0 89.5c14.62,0 24.77,-1.6 30.59,-4.83 5.82,-3.22 8.79,-13.73 8.79,-31.44l0 -22.12c0,-12.81 -2.86,-21.19 -8.47,-25.17 -5.6,-3.99 -15.99,-5.94 -30.91,-5.94zm555.58 -68.65l-74.66 181.63 81.64 220.61 -134.69 0 -53.06 -172.4 0 172.4 -130.88 0 0 -402.25 130.88 0 0 156.29 58.77 -156.29 121.98 0zm189.09 291.31c0,23.39 1.18,37.79 3.5,43.22 2.43,5.5 7.94,8.22 16.52,8.22 8.78,0 14.51,-3.14 16.94,-9.41 2.43,-6.36 3.71,-21.36 3.71,-45.01l0 -54.92 -40.68 0 0 57.9zm-130.24 -175.87c0.53,-14.24 1.37,-25.6 2.55,-34.07 2.54,-16.86 9.95,-32.29 22.55,-46.27 12.49,-13.9 29.44,-24.59 50.83,-32.04 21.28,-7.46 46.16,-11.18 74.54,-11.18 26.9,0 51.15,3.55 72.54,10.59 21.5,7.03 38.66,17.54 51.78,31.61 13.02,14.07 20.76,29.42 23.31,45.94 2.43,16.61 3.7,45.59 3.7,86.95l0 68.81c0,40.43 -1.16,69 -3.6,85.77 -2.33,16.87 -9.86,32.22 -22.34,46.12 -12.51,13.89 -29.44,24.57 -50.73,32.03 -21.39,7.46 -46.17,11.19 -74.54,11.19 -26.9,0 -51.05,-3.56 -72.54,-10.6 -21.39,-7.03 -38.66,-17.54 -51.67,-31.61 -13.02,-14.07 -20.76,-29.42 -23.31,-45.94 -2.43,-16.52 -3.7,-45.51 -3.7,-86.86l0 -68.82c0,-3.48 0,-6.87 0,-10.17l171.55 0.25 0 -53.4c0,-18.64 -1.28,-30.67 -3.82,-35.85 -2.65,-5.26 -7.95,-7.79 -15.89,-7.79 -6.78,0 -11.95,2.11 -15.55,6.27 -3.61,4.23 -5.42,16.69 -5.42,37.37l0 11.7 -130.24 0zm601.54 -115.44l0 80.35 -96.88 241.55 96.88 0 0 80.35 -240.79 0 0 -58.31 100.69 -263.58 -88.63 0 0 -80.35 228.72 0zm197.26 0l0 402.25 -130.88 0 0 -402.25 130.88 0zm-25.1 -77.28l0 64.58 -80.68 0 0 -64.58 80.68 0z"/>
   <path class="fil1" d="M6790.28 7961.15c36.11,0 64.16,13.85 83.96,41.55 19.86,27.7 29.8,64.26 29.8,109.77l0 15.69c0,45.06 -9.54,82.15 -28.63,111.09 -19.09,29.01 -42.62,43.45 -70.54,43.52 -32.76,-0.07 -57.84,-12.53 -75.26,-37.59 -17.35,-25.07 -26.05,-59.58 -26.05,-103.47l0 -24.92 162.3 0 0 -4.32c0,-34.58 -6.19,-62.71 -18.5,-84.34 -12.39,-21.62 -31.41,-32.39 -57.08,-32.39 -12.56,0 -23.66,1.83 -33.27,5.65 -9.54,3.8 -17.87,8.56 -24.9,14.28l-7.8 -31.14c4.97,-5.57 13.09,-10.85 24.52,-15.89 11.41,-4.99 25.21,-7.48 41.45,-7.48zm14.58 287.47c17.08,0 30.88,-9.37 41.46,-28.06 10.51,-18.68 16.76,-42.95 18.76,-72.85l-123.36 0 0 6.67c0,28.57 5.03,51.44 15.03,68.58 9.98,17.08 26.05,25.65 48.1,25.65zm348.83 29.61l-38.12 0 -104.33 -232.51 -1.1 0.44 0 232.07 -38.36 0 0 -312.61 38.36 0 104.27 231.85 1.15 -0.37 0 -231.48 38.12 0 0 312.61zm157.52 0l0 -312.61 76.73 0c25.92,0 46.17,7.04 60.67,21.02 14.57,14.07 21.87,35.11 21.87,63.18 0,14.87 -3.29,27.99 -9.94,39.34 -6.64,11.43 -15.79,19.72 -27.47,25.07 14.83,3.67 26.25,12.53 34.24,26.45 8.06,13.99 12.06,30.34 12.06,49.09 0,28.8 -7.16,50.72 -21.47,65.8 -14.32,15.1 -34.05,22.65 -59.2,22.65l-87.5 0zm38.37 -145.75l0 112.7 49.13 0c13.54,0 24.06,-4.76 31.41,-14.29 7.41,-9.52 11.09,-23.16 11.09,-40.9 0,-17.58 -3.16,-31.58 -9.47,-41.98 -6.26,-10.34 -16,-15.54 -29.09,-15.54l-53.06 0zm0 -31.36l42.09 0c12.58,0 22.51,-4.32 29.67,-12.97 7.16,-8.66 10.77,-21.19 10.77,-37.45 0,-17.22 -3.73,-30.12 -11.23,-38.69 -7.47,-8.58 -18.5,-12.9 -32.94,-12.9l-38.36 0 0 102.01zm368.3 63.97c0,37.08 -8.45,65.95 -25.33,86.61 -16.84,20.67 -39.47,31.01 -67.78,31.08 -27.99,-0.07 -50.23,-10.41 -66.74,-31.08 -16.45,-20.66 -24.7,-49.53 -24.7,-86.61l0 -85.88c0,-36.93 8.25,-65.8 24.83,-86.69 16.57,-20.95 38.75,-31.36 66.61,-31.36 28.18,0 50.74,10.41 67.71,31.36 16.96,20.89 25.4,49.76 25.4,86.69l0 85.88zm-38.18 -86.54c0,-27.19 -4.77,-47.78 -14.3,-61.92 -9.61,-14.07 -23.16,-21.1 -40.63,-21.1 -17.28,0 -30.5,7.03 -39.72,21.1 -9.15,14.14 -13.8,34.73 -13.8,61.92l0 86.54c0,27.48 4.65,48.3 13.92,62.51 9.22,14.14 22.44,21.25 39.59,21.25 17.6,0 31.14,-7.11 40.69,-21.19 9.47,-14.06 14.25,-34.96 14.25,-62.58l0 -86.54zm5.99 -151.91l-39.13 0 0 -39.72 39.13 0 0 39.72zm-80.86 0l-39.33 0 0 -39.72 39.33 0 0 39.72zm243.74 190.82l1.1 0 56.36 -151.84 42.49 0 -80.86 200.12 0 112.49 -38.18 0 0 -115.26 -79.89 -197.34 42.88 0 56.1 151.84zm311.44 -151.84l0 216.61c0,32.39 -8.38,57.23 -25.08,74.52 -16.77,17.29 -38.69,25.95 -65.77,26.01 -26.82,-0.07 -48.43,-8.73 -64.87,-26.01 -16.45,-17.29 -24.7,-42.13 -24.7,-74.52l0 -216.61 38.18 0 0 216.61c0,22.2 4.65,38.98 13.99,50.34 9.35,11.43 21.8,17.08 37.4,17.08 16.11,0 28.87,-5.43 38.23,-16.28 9.42,-10.92 14.12,-27.92 14.12,-51.14l0 -216.61 38.5 0zm-29.99 -34.59l-39.13 0 0 -39.71 39.13 0 0 39.71zm-80.86 0l-39.33 0 0 -39.71 39.33 0 0 39.71zm244.38 207.01l-26.25 0 0 140.18 -38.36 0 0 -312.61 38.36 0 0 137.39 22.83 0 72.73 -137.39 45.71 0 -86.53 148.39 93.18 164.22 -46.88 0 -74.81 -140.18z"/>
   <path class="fil2" d="M5771.39 7139.96l243.29 0c139.81,0 209.48,47.63 209.48,142.89 0,68.12 -24.59,121.38 -73.25,159.28 -48.64,38.42 -117.28,57.37 -205.38,57.37l-285.28 0c-103.46,0 -183.36,-22.03 -239.7,-65.55 -56.34,-43.54 -84.51,-105.51 -84.51,-186.96 0,-51.72 21,-128.03 63,-228.42l384.13 -903.99c-145.21,159.84 -707.34,861.46 -889.79,861.46 -127.82,0 -92.99,-853.98 -92.53,-950.68 -3.25,7.07 -6.52,14.13 -9.66,21l-1058.83 2317.52c-53.91,118 -151.38,208.75 -256.6,290.93 -151.88,118.59 -326.76,177.21 -523.95,177.21 -209.99,0 -380.54,-66.59 -511.67,-199.23 -131.11,-132.66 -196.67,-305.77 -196.67,-518.84 0,-279.65 102.95,-525.5 309.36,-738.04 111.15,-113.19 249.94,-204.36 416.4,-274.02 165.95,-69.65 329.84,-104.49 491.17,-104.49 81.95,0 147.5,17.42 196.67,52.76 49.17,34.83 73.76,81.43 73.76,139.83 0,60.95 -26.12,110.63 -78.37,148.53 -29.7,22.03 -88.08,36.87 -174.14,45.08 -199.75,17.92 -360.57,63.5 -482.98,136.75 -101.41,60.94 -181.82,140.84 -241.24,239.18 -59.93,97.82 -89.63,200.77 -89.63,307.82 0,114.21 29.18,204.35 87.07,269.91 57.87,65.55 137.77,98.33 238.68,98.33 121.38,0 226.38,-51.74 316.01,-155.18 89.63,-103.47 182.85,-288.46 295.02,-548.54l930.42 -2039.13c40.81,-88.22 81.53,-180.23 161.25,-235.18 120.77,-83.22 409.84,-74.86 409.66,164.57 -0.24,291.35 19.63,567.67 23.61,857l752.26 -902.85c88.8,-106.57 192.06,-144.94 278.11,-144.94 60.44,0 111.15,18.44 152.63,54.8 41.48,36.37 62.48,80.42 62.48,132.66 0,32.78 -8.2,68.64 -24.08,107.56l-34.82 83.99 -541.37 1329.61zm2903.69 86.07l180.28 0c126.51,0 189.52,44.56 189.52,133.16 0,60.43 -22.55,108.07 -67.11,141.88 -45.07,33.81 -107.03,50.7 -185.4,50.7l-313.45 0c-61.46,0 -113.2,-18.44 -155.19,-55.32 -41.48,-37.39 -62.48,-83.99 -62.48,-139.83 0,-33.81 14.34,-85.02 42.51,-153.14l134.19 -327.28c14.34,-33.81 22.03,-61.47 23.04,-82.46 1.03,-24.08 -8.7,-44.56 -29.2,-61.46 -20.48,-16.91 -47.11,-25.61 -78.87,-25.61 -103.45,0 -186.93,77.34 -249.94,232.52l-177.21 435.87c-53.26,132.14 -132.66,198.21 -237.65,198.21 -43.54,0 -79.91,-12.81 -110.12,-38.92 -30.22,-26.12 -45.07,-58.39 -45.07,-96.29 0,-28.17 8.2,-61.46 24.08,-100.89l16.38 -40.47 303.21 -748.29c39.43,-97.31 105.5,-145.97 199.74,-145.97 77.34,0 132.15,34.33 165.44,102.43 107.05,-80.41 209.48,-120.88 306.28,-120.88 94.24,0 172.09,27.16 233.04,80.93 60.95,54.29 91.68,122.93 91.68,205.91 0,46.08 -11.27,96.28 -33.29,151.59l-164.41 403.6zm2898.1 8.05l174.14 0c69.15,0 118.32,10.24 147.5,30.72 29.21,20.49 43.54,53.78 43.54,100.9 0,60.43 -22.53,108.07 -67.08,142.39 -44.56,34.31 -107.05,51.73 -186.95,51.73l-268.9 0c-83.99,0 -139.83,-32.77 -168,-97.82 -54.8,65.05 -123.94,97.82 -206.91,97.82l-219.22 0c-88.08,0 -160.82,-27.65 -218.7,-82.46 -57.87,-54.81 -87.06,-124.45 -87.06,-208.45 0,-47.63 12.79,-103.97 38.92,-167.99l203.33 -500.41c56.86,-138.8 134.71,-208.45 233.56,-208.45 43.02,0 79.38,13.83 109.1,41.49 30.21,27.13 45.07,60.94 45.07,100.89 0,30.22 -7.69,64.54 -23.56,103.46l-16.9 40.46 -156.22 385.67 -15.88 44.56c-9.21,26.12 -13.83,45.59 -14.86,58.38 -2.04,44.56 27.16,67.11 87.08,67.11 123.94,0 206.91,-50.2 247.89,-150.07l187.46 -463.01c55.82,-140.33 135.22,-210.49 237.13,-210.49 41.99,0 77.85,13.82 108.07,42 30.21,28.16 45.07,61.97 45.07,100.89 0,31.25 -12.81,79.39 -38.92,144.44l-218.7 536.25zm-2027.48 768.88l-102.46 223.28c-111.67,243.39 -244.2,329.58 -398.27,258.88 -54.46,-24.99 -90.29,-61.84 -108.27,-110.31 -17.98,-48.47 -13.57,-101.14 12.17,-157.27 35.48,-77.28 97.44,-131.91 185.94,-163.85 87.92,-32.16 225.42,-48.81 410.88,-50.74zm881.22 -1302.57l-476.18 1043.57 0.6 -0.01 -0.59 1.29 1892.26 -0.28c64.65,0 117.57,52.91 117.57,117.6 0,64.67 -52.91,117.58 -117.57,117.58l-2000.04 0 -107.97 235.29c-235.83,513.95 -515.65,695.98 -841.03,546.68 -114.98,-52.77 -190.63,-130.58 -228.6,-232.95 -37.97,-102.35 -28.65,-213.58 25.7,-332.06 74.9,-163.22 205.75,-278.57 392.66,-346.01 131.33,-48.05 315.11,-79.69 550.05,-95.54l78.67 -242.34c-73.76,31.24 -141.88,46.6 -203.86,46.6 -106.53,0 -193.61,-27.14 -259.68,-81.94 -66.58,-54.3 -99.86,-125.49 -99.86,-212.56 0,-53.26 21.51,-132.66 64.52,-238.68l162.88 -404.1 16.38 -42.51c48.16,-113.2 122.42,-169.53 222.8,-169.53 44.04,0 80.41,13.82 110.11,42 29.2,28.16 44.05,63.5 44.05,107.03 0,28.69 -12.81,75.81 -38.92,141.36l-146.49 359.05c-23.04,58.38 -34.82,95.77 -35.85,112.67 -3.08,49.17 28.17,73.76 92.71,73.76 46.09,0 93.21,-13.31 141.36,-40.47 47.64,-27.13 78.36,-57.87 91.16,-91.67l200.78 -491.69 14.86 -42c47.11,-113.19 121.89,-170.04 223.81,-170.04 43.55,0 80.42,14.34 110.12,43.03 29.2,28.16 44.04,63.5 44.04,105.5 0,29.2 -7.68,62.99 -22.53,100.89l-17.92 40.47zm-3756.9 419.99c0,75.81 56.34,113.71 169.53,113.71l445.6 0c126.5,0 189.5,44.55 189.5,133.15 0,60.44 -22.55,108.08 -67.11,141.88 -44.55,33.81 -107.03,50.7 -186.93,50.7l-424.6 0c-158.78,0 -279.13,-38.92 -362.11,-116.77 -82.46,-77.85 -123.94,-192.06 -123.94,-342.13 0,-192.58 65.04,-359.05 195.65,-498.87 130.61,-139.81 286.31,-209.99 466.08,-209.99 131.12,0 236.62,34.31 316.02,102.43 79.38,68.63 119.33,158.78 119.33,270.95 0,134.7 -54.81,234.57 -164.92,299.62 -60.43,36.87 -151.61,55.32 -271.96,55.32l-300.13 0zm71.71 -273.5l164.92 0c107.05,0 159.29,-23.05 156.22,-69.16 -3.08,-52.23 -37.39,-78.36 -103.47,-78.36 -92.18,0 -164.4,49.17 -217.66,147.51z"/>
   <path class="fil3" d="M10782.13 2830.77c84.82,147.3 34.18,335.5 -113.13,420.32 -147.31,84.82 -335.5,34.16 -420.32,-113.14 -84.83,-147.32 -34.19,-335.51 113.13,-420.34 147.31,-84.82 335.49,-34.15 420.32,113.17z"/>
   <path class="fil3" d="M11560.3 4285.49l-60.59 -92.13 183.3 -121.07 60.69 91.54 60.93 91.88 -183.6 121.29c-60.72,-91.51 0,0 -60.72,-91.51z"/>
   <path class="fil3" d="M11015 3595.06l-75.04 -80.4 160.25 -150.38 150.55 160.64 -160.8 150.21c-74.96,-80.07 0,0 -74.96,-80.07z"/>
   <path class="fil3" d="M9618.25 2534.08l-97.34 -51.03 101.56 -194.93 97.72 50.87 97.39 51.1 -101.99 195.08c-97.34,-51.08 0,0 -97.34,-51.08z"/>
   <path class="fil3" d="M8806.81 2192.9l-104.64 -34.16 67.9 -209.04 104.45 33.77 0.21 0.35 104.42 33.81 -67.95 209.03c-104.39,-33.75 0,0 -104.39,-33.75z"/>
   <path class="fil3" d="M7949.47 1990.87l0 0 -108.51 -16.33 32.42 -217.41 108.85 16.13 108.53 16.32 -32.41 217.43c-108.89,-16.14 0,0 -108.89,-16.14z"/>
   <path class="fil3" d="M7071 1934.12l-109.85 1.84 -4.31 -219.77 110.13 -2.1 109.88 -1.88 4.31 219.77c-110.17,2.13 0,0 -110.17,2.13z"/>
   <path class="fil3" d="M6195.33 2024.91l0.36 -0.2 -108.56 20.48 -40.91 -216.2 216.17 -40.98 40.95 216.19c-108.01,20.7 0,0 -108.01,20.7z"/>
   <path class="fil3" d="M5347.67 2260.92l-103.29 38.72 -76.8 -206.39 206.38 -76.83 76.86 206.41c-103.15,38.09 0,0 -103.15,38.09z"/>
   <path class="fil3" d="M4550.69 2635.85l-95.37 54.91 -109.79 -190.66 190.73 -109.82 109.79 190.66c-95.36,54.91 0,0 -95.36,54.91z"/>
   <path class="fil4" d="M10318.93 12314.17l-38.27 -62.55c2787.78,-1705.68 3668.15,-5361.37 1962.48,-8149.15 -1705.69,-2787.81 -5361.43,-3668.22 -8149.21,-1962.55 -2787.82,1705.69 -3668.15,5361.44 -1962.46,8149.26l-62.55 38.27c-1726.79,-2822.29 -835.55,-6523.26 1986.75,-8250.05 2822.29,-1726.79 6523.24,-835.5 8250.03,1986.79 1726.76,2822.25 835.51,6523.19 -1986.78,8249.98z"/>
   <path class="fil4" d="M10112.04 12514.39l-109.83 -190.75 190.73 -109.82 109.83 190.74 -95.36 54.91c-95.37,54.92 0,0 -95.37,54.92z"/>
   <path class="fil4" d="M9381.96 12855.49l-102.46 40.11 -80.21 -204.95 205.09 -79.82 80.06 204.52c-102.48,40.13 0,0 -102.48,40.13z"/>
   <path class="fil4" d="M8506.13 13122.89l-107.43 24.09 -47.67 -214.72 214.52 -47.96 47.94 214.48c-107.36,24.11 0,0 -107.36,24.11z"/>
   <path class="fil4" d="M7600.02 13254.27l0 0 -109.87 7.57 -14.88 -219.39 219.36 -14.93 15.25 219.19c-109.86,7.56 0,0 -109.86,7.56z"/>
   <path class="fil4" d="M6684.44 13247.73l0 0 -109.58 -9.15 18.25 -219.14 219.1 18.33 -18.21 219.09c-109.56,-9.13 0,0 -109.56,-9.13z"/>
   <path class="fil4" d="M5780.51 13104.17l-107.02 -25.23 50.8 -214.25 213.65 50.66 -50.39 214.03c-107.03,-25.21 0,0 -107.03,-25.21z"/>
   <path class="fil4" d="M4086.38 12423.52l0 0 -94.9 -55.79 111.77 -189.44 94.92 55.79 -0.21 -0.36 94.9 55.79 -111.58 189.8c-94.91,-55.8 0,0 -94.91,-55.8z"/>
   <path class="fil4" d="M3335.12 11900.83l-0.2 -0.35 -85.25 -69.39 138.71 -170.54 85.49 69.77 85.28 69.35 -138.77 170.53c-85.27,-69.38 0,0 -85.27,-69.38z"/>
   <path class="fil4" d="M2671.32 11270.15l-73.87 -81.54 163.4 -147.47 147.2 163.03 -163.16 147.79c-73.57,-81.81 0,0 -73.57,-81.81z"/>
   <path class="fil4" d="M2110.72 10546.6l-60.91 -91.85 183.6 -121.3 121.29 183.57 -183.6 121.29c-60.39,-91.7 0,0 -60.39,-91.7z"/>
   <path class="fil3" d="M4785.4 3249.82c0.05,-0.08 0.15,-0.15 0.22,-0.18l-0.22 0.18z"/>
   <path class="fil3" d="M4789.07 3247.56c0.14,-0.08 0.28,-0.16 0.41,-0.24 -0.1,0.06 -0.28,0.16 -0.41,0.24z"/>
   <path class="fil3" d="M4792.78 3245.33c0.17,-0.1 0.31,-0.18 0.5,-0.29 -0.14,0.08 -0.36,0.21 -0.5,0.29z"/>
   <path class="fil3" d="M4954.13 3152.36c-0.95,0.51 -1.94,1.07 -2.85,1.54 0.96,-0.5 1.87,-1.01 2.85,-1.54zm-3.87 2.13c-0.84,0.45 -1.68,0.93 -2.49,1.41 0.77,-0.45 1.69,-0.98 2.49,-1.41z"/>
   <path class="fil3" d="M4800.71 3240.58c0.07,-0.05 0.28,-0.16 0.35,-0.21 -0.14,0.08 -0.21,0.13 -0.35,0.21z"/>
   <path class="fil3" d="M4946.71 3156.45c-0.77,0.45 -1.72,0.95 -2.46,1.37 0.77,-0.44 1.64,-0.9 2.46,-1.37z"/>
   <path class="fil3" d="M4804.31 3238.4c0.24,-0.14 0.5,-0.29 0.74,-0.43 -0.24,0.14 -0.46,0.27 -0.74,0.43z"/>
   <path class="fil3" d="M4943.14 3158.42c-0.86,0.48 -1.65,0.93 -2.5,1.39 0.81,-0.47 1.67,-0.92 2.5,-1.39z"/>
   <path class="fil3" d="M4808.03 3236.18c0.25,-0.15 0.51,-0.3 0.75,-0.44 -0.15,0.08 -0.61,0.36 -0.75,0.44z"/>
   <path class="fil3" d="M4939.6 3160.41c-1.01,0.53 -1.76,0.96 -2.77,1.5 0.93,-0.51 1.83,-1.01 2.77,-1.5z"/>
   <path class="fil3" d="M4811.96 3233.81c0.07,-0.03 0.36,-0.21 0.43,-0.24 -0.15,0.08 -0.29,0.16 -0.43,0.24z"/>
   <path class="fil3" d="M4936.12 3162.32c-2.36,1.31 -4.75,2.64 -7.11,3.95 2.43,-1.35 4.68,-2.6 7.11,-3.95z"/>
   <path class="fil3" d="M4819.79 3229.16c0.25,-0.15 0.43,-0.25 0.68,-0.39 -0.25,0.14 -0.39,0.23 -0.68,0.39z"/>
   <path class="fil3" d="M4928.44 3166.59c-0.99,0.58 -1.87,1.03 -2.87,1.6 0.97,-0.56 1.9,-1.05 2.87,-1.6z"/>
   <path class="fil3" d="M4823.36 3227.05c0.43,-0.24 0.67,-0.38 1.11,-0.63 -0.44,0.25 -0.68,0.39 -1.11,0.63z"/>
   <path class="fil3" d="M4924.34 3168.9c-0.76,0.4 -1.5,0.83 -2.25,1.26 0.82,-0.46 1.42,-0.82 2.25,-1.26z"/>
   <path class="fil3" d="M4827.14 3224.83c0.31,-0.18 0.61,-0.4 0.93,-0.59 -0.39,0.22 -0.56,0.32 -0.93,0.59z"/>
   <path class="fil3" d="M4920.75 3170.87c-0.68,0.39 -1.53,0.89 -2.2,1.27 0.67,-0.38 1.52,-0.88 2.2,-1.27z"/>
   <path class="fil3" d="M4830.92 3222.56c0.24,-0.14 0.56,-0.32 0.82,-0.47 -0.28,0.16 -0.58,0.33 -0.82,0.47z"/>
   <path class="fil3" d="M4917.3 3172.82c-0.78,0.46 -1.45,0.84 -2.2,1.27 0.78,-0.45 1.39,-0.8 2.2,-1.27zm-3.6 2.03c-0.71,0.4 -1.38,0.8 -2.1,1.21 0.68,-0.4 1.43,-0.83 2.1,-1.21zm-3.49 1.97c-0.71,0.4 -1.53,0.88 -2.2,1.27 0.67,-0.39 1.52,-0.89 2.2,-1.27z"/>
   <path class="fil3" d="M4839.03 3217.8c0.32,-0.2 0.5,-0.3 0.81,-0.47 -0.28,0.16 -0.55,0.32 -0.81,0.47z"/>
   <path class="fil3" d="M4906.73 3178.81c-2.29,1.27 -4.55,2.57 -6.84,3.85 2.28,-1.28 4.54,-2.58 6.84,-3.85z"/>
   <path class="fil3" d="M4842.65 3215.66c0.44,-0.25 0.65,-0.37 1.04,-0.6 -0.39,0.23 -0.6,0.35 -1.04,0.6z"/>
   <path class="fil3" d="M4846.27 3213.57c0.39,-0.22 0.84,-0.52 1.23,-0.75 -0.39,0.23 -0.84,0.53 -1.23,0.75z"/>
   <path class="fil3" d="M4898.54 3183.43c-0.68,0.39 -1.49,0.86 -2.17,1.24 0.68,-0.38 1.49,-0.85 2.17,-1.24z"/>
   <path class="fil3" d="M4849.98 3211.39c0.35,-0.2 0.82,-0.46 1.13,-0.65 -0.43,0.24 -0.7,0.4 -1.13,0.65z"/>
   <path class="fil3" d="M4894.97 3185.44c-0.67,0.39 -1.35,0.77 -2.06,1.19 0.68,-0.39 1.39,-0.8 2.06,-1.19z"/>
   <path class="fil3" d="M4854.56 3208.71c0.07,-0.05 0.07,-0.05 0.14,-0.08l-0.14 0.08z"/>
   <path class="fil3" d="M4891.42 3187.48c-0.67,0.39 -1.34,0.78 -2.02,1.16 0.68,-0.38 1.35,-0.77 2.02,-1.16z"/>
   <path class="fil3" d="M4858.32 3206.54c0.32,-0.18 0.75,-0.43 1.07,-0.61 -0.39,0.23 -0.63,0.37 -1.07,0.61z"/>
   <path class="fil3" d="M4887.92 3189.49c-0.67,0.39 -1.23,0.71 -1.94,1.08 0.7,-0.37 1.27,-0.69 1.94,-1.08z"/>
   <path class="fil3" d="M4861.84 3204.47c0.39,-0.22 1.03,-0.59 1.42,-0.81 -0.39,0.22 -1.03,0.59 -1.42,0.81z"/>
   <path class="fil3" d="M4884.42 3191.48c-0.67,0.38 -1.37,0.78 -2.05,1.18 0.82,-0.47 1.23,-0.71 2.05,-1.18z"/>
   <path class="fil3" d="M4865.5 3202.37c0.43,-0.24 1.04,-0.6 1.43,-0.82 -0.39,0.22 -1,0.58 -1.43,0.82z"/>
   <path class="fil3" d="M4881.02 3193.42c-0.78,0.45 -1.64,0.95 -2.37,1.37 0.81,-0.47 1.56,-0.9 2.37,-1.37z"/>
   <path class="fil3" d="M4869.36 3200.14c0.39,-0.23 0.71,-0.41 1.14,-0.66 -0.43,0.24 -0.75,0.43 -1.14,0.66z"/>
   <path class="fil3" d="M4877.58 3195.41c-1.16,0.68 -2.33,1.35 -3.46,2.01l0 0c1.2,-0.7 2.22,-1.29 3.46,-2.01z"/>
   <path class="fil4" d="M3294.66 9690.07l-0.13 -0.16c0.1,0.13 0.05,0.02 0.13,0.16zm-5.6 -8.77l-0.13 -0.16 0.13 0.16zm-8.36 -13.12l-0.1 -0.17 0.1 0.17zm-5.53 -8.75c-0.07,-0.12 -0.1,-0.18 -0.17,-0.28 0.09,0.13 0.09,0.13 0.17,0.28zm-5.59 -8.92l-0.08 -0.09 0.08 0.09zm-2.64 -4.18c-0.1,-0.17 -0.13,-0.22 -0.23,-0.38l0.23 0.38zm-5.51 -8.83c-0.13,-0.2 -0.18,-0.3 -0.29,-0.48 0.06,0.12 0.2,0.36 0.29,0.48zm-5.57 -8.97c-0.05,-0.06 -0.17,-0.28 -0.21,-0.35 0.06,0.12 0.12,0.21 0.21,0.35zm-2.63 -4.24c-0.12,-0.17 -0.2,-0.31 -0.29,-0.48 0.14,0.24 0.14,0.24 0.29,0.48zm-5.44 -8.81c-0.09,-0.17 -0.35,-0.55 -0.46,-0.77 0.16,0.29 0.32,0.53 0.46,0.77zm-2.81 -4.6c-0.07,-0.12 -0.08,-0.15 -0.16,-0.25l0.16 0.25zm-2.72 -4.44c-0.1,-0.17 -0.25,-0.43 -0.36,-0.6 0.06,0.1 0.28,0.46 0.36,0.6zm-2.5 -4.08c-0.16,-0.29 -0.4,-0.67 -0.58,-0.95 0.17,0.28 0.44,0.69 0.58,0.95zm-3.02 -4.96c-0.07,-0.12 -0.09,-0.15 -0.16,-0.25l0.16 0.25zm-2.47 -4.06c-0.23,-0.39 -0.33,-0.58 -0.58,-0.95 0.18,0.28 0.4,0.67 0.58,0.95zm-2.85 -4.69c-0.06,-0.12 -0.12,-0.22 -0.2,-0.32l0.2 0.32zm-2.66 -4.4c-0.18,-0.29 -0.32,-0.53 -0.48,-0.82 0.16,0.29 0.3,0.53 0.48,0.82zm-2.54 -4.22c-0.17,-0.28 -0.36,-0.6 -0.54,-0.86 0.18,0.27 0.39,0.63 0.54,0.86zm-2.96 -4.9c-0.1,-0.17 -0.21,-0.35 -0.33,-0.56 0.08,0.14 0.24,0.43 0.33,0.56zm-2.46 -4.1c-0.24,-0.38 -0.36,-0.59 -0.59,-0.98 0.16,0.28 0.41,0.69 0.59,0.98zm-2.8 -4.67c-0.05,-0.07 -0.18,-0.31 -0.22,-0.38 0.08,0.14 0.14,0.24 0.22,0.38zm-2.64 -4.43c-0.17,-0.24 -0.44,-0.7 -0.6,-0.98 0.15,0.25 0.45,0.73 0.6,0.98zm-2.57 -4.29c-0.16,-0.28 -0.33,-0.59 -0.52,-0.88 0.27,0.43 0.3,0.5 0.52,0.88zm-2.92 -4.91c-0.13,-0.22 -0.25,-0.44 -0.36,-0.6 0.09,0.14 0.27,0.45 0.36,0.6zm-2.41 -4.05c-0.23,-0.39 -0.43,-0.75 -0.65,-1.1 0.23,0.38 0.4,0.67 0.65,1.1zm-2.84 -4.79c-0.06,-0.1 -0.16,-0.28 -0.22,-0.39 0.08,0.14 0.14,0.25 0.22,0.39zm-2.56 -4.37c-0.24,-0.38 -0.44,-0.74 -0.67,-1.13 0.23,0.39 0.4,0.7 0.67,1.13zm-2.56 -4.33c-0.16,-0.29 -0.39,-0.63 -0.55,-0.91 0.16,0.28 0.41,0.66 0.55,0.91zm-2.88 -4.91c-0.16,-0.29 -0.32,-0.56 -0.51,-0.83 0.16,0.23 0.35,0.54 0.51,0.83zm-2.41 -4.13c-0.23,-0.39 -0.46,-0.77 -0.69,-1.16 0.25,0.43 0.46,0.77 0.69,1.16zm-2.87 -4.91c-0.06,-0.1 -0.12,-0.17 -0.17,-0.28 0.08,0.14 0.08,0.14 0.17,0.28zm-2.52 -4.31c-0.22,-0.39 -0.38,-0.67 -0.62,-1.06 0.25,0.43 0.38,0.65 0.62,1.06zm-2.51 -4.35c-0.17,-0.28 -0.38,-0.65 -0.54,-0.92 0.16,0.28 0.38,0.67 0.54,0.92zm-2.87 -4.97c-0.18,-0.27 -0.33,-0.52 -0.5,-0.8 0.16,0.28 0.31,0.53 0.5,0.8zm-2.39 -4.09c-0.23,-0.39 -0.43,-0.75 -0.66,-1.14 0.23,0.39 0.43,0.75 0.66,1.14z"/>
   <path class="fil3" d="M4980.4 3137.99c-0.14,0.08 -0.07,0.03 -0.17,0.1 0.07,-0.05 0.1,-0.07 0.17,-0.1z"/>
   <path class="fil3" d="M4976.89 3139.92c-0.14,0.09 -0.35,0.21 -0.48,0.29 0.16,-0.09 0.31,-0.18 0.48,-0.29z"/>
   <path class="fil3" d="M4973.3 3141.9c-0.16,0.03 -0.45,0.2 -0.59,0.28 0.14,-0.08 0.43,-0.24 0.59,-0.28z"/>
   <path class="fil3" d="M4969.66 3143.85c-0.14,0.08 -0.39,0.22 -0.53,0.3 0.21,-0.12 0.32,-0.18 0.53,-0.3z"/>
   <path class="fil3" d="M4965.9 3145.91c-0.1,0.07 -0.22,0.13 -0.32,0.18 0.07,-0.03 0.25,-0.14 0.32,-0.18z"/>
   <path class="fil3" d="M4785.62 3249.64c1.21,-0.7 2.25,-1.35 3.45,-2.07 -1.12,0.68 -2.31,1.42 -3.45,2.07zm3.86 -2.32c1.07,-0.68 2.25,-1.35 3.3,-1.99 -1.08,0.67 -2.18,1.29 -3.3,1.99zm3.79 -2.28c2.51,-1.53 4.9,-2.96 7.43,-4.46 -2.51,1.48 -4.99,2.96 -7.43,4.46z"/>
   <path class="fil3" d="M4954.73 3152.01c-0.24,0.15 -0.36,0.21 -0.6,0.35 0.21,-0.12 0.38,-0.22 0.6,-0.35z"/>
   <path class="fil3" d="M4951.29 3153.9c-0.28,0.16 -0.74,0.43 -1.03,0.59 0.39,-0.22 0.63,-0.36 1.03,-0.59z"/>
   <path class="fil3" d="M4801.05 3240.37c1.07,-0.67 2.19,-1.35 3.26,-1.97 -1.12,0.69 -2.14,1.28 -3.26,1.97z"/>
   <path class="fil3" d="M4947.77 3155.89c-0.46,0.21 -0.67,0.32 -1.06,0.55 0.36,-0.21 0.65,-0.37 1.06,-0.55z"/>
   <path class="fil3" d="M4944.26 3157.82c-0.43,0.24 -0.74,0.37 -1.12,0.6 0.35,-0.21 0.73,-0.37 1.12,-0.6z"/>
   <path class="fil3" d="M4805.05 3237.97c1.05,-0.65 1.9,-1.14 2.97,-1.8 -0.98,0.6 -2.03,1.21 -2.97,1.8z"/>
   <path class="fil3" d="M4940.64 3159.81c-0.25,0.14 -0.76,0.44 -1.04,0.6 0.32,-0.18 0.74,-0.44 1.04,-0.6z"/>
   <path class="fil3" d="M4808.78 3235.74c1.04,-0.65 2.13,-1.28 3.18,-1.92 -1.12,0.69 -2.07,1.23 -3.18,1.92z"/>
   <path class="fil3" d="M4936.83 3161.91c-0.29,0.16 -0.43,0.24 -0.71,0.4 0.25,-0.14 0.46,-0.27 0.71,-0.4z"/>
   <path class="fil3" d="M4812.38 3233.57c2.54,-1.51 4.89,-2.9 7.41,-4.41 -2.46,1.46 -4.92,2.93 -7.41,4.41z"/>
   <path class="fil3" d="M4929.01 3166.27c-0.14,0.08 -0.46,0.27 -0.56,0.32 0.14,-0.08 0.43,-0.24 0.56,-0.32z"/>
   <path class="fil3" d="M4820.47 3228.76c0.96,-0.55 1.96,-1.19 2.88,-1.72 -0.96,0.55 -1.92,1.16 -2.88,1.72z"/>
   <path class="fil3" d="M4925.57 3168.19c-0.38,0.22 -0.84,0.48 -1.23,0.7 0.39,-0.22 0.89,-0.51 1.23,-0.7z"/>
   <path class="fil3" d="M4824.46 3226.41c0.75,-0.47 1.86,-1.11 2.67,-1.58 -0.89,0.51 -1.81,1.04 -2.67,1.58z"/>
   <path class="fil3" d="M4922.09 3170.15c-0.39,0.23 -0.92,0.53 -1.34,0.71 0.48,-0.22 0.88,-0.45 1.34,-0.71z"/>
   <path class="fil3" d="M4828.07 3224.25c0.95,-0.55 1.9,-1.11 2.85,-1.68 -0.97,0.6 -1.9,1.13 -2.85,1.68z"/>
   <path class="fil3" d="M4918.55 3172.14c-0.43,0.24 -0.86,0.46 -1.26,0.68 0.44,-0.21 0.81,-0.41 1.26,-0.68z"/>
   <path class="fil3" d="M4831.74 3222.09c2.39,-1.43 4.9,-2.87 7.3,-4.29 -2.43,1.43 -4.91,2.86 -7.3,4.29z"/>
   <path class="fil3" d="M4915.09 3174.08c-0.41,0.24 -1.01,0.54 -1.39,0.76 0.43,-0.24 0.93,-0.5 1.39,-0.76z"/>
   <path class="fil3" d="M4911.6 3176.05c-0.53,0.3 -0.84,0.48 -1.39,0.76 0.44,-0.22 0.97,-0.52 1.39,-0.76z"/>
   <path class="fil3" d="M4839.84 3217.33c0.93,-0.53 1.92,-1.11 2.81,-1.67 -0.86,0.54 -1.92,1.16 -2.81,1.67z"/>
   <path class="fil3" d="M4908.01 3178.08c-0.39,0.22 -0.84,0.48 -1.28,0.73 0.46,-0.27 0.82,-0.46 1.28,-0.73z"/>
   <path class="fil3" d="M4843.69 3215.06c0.82,-0.47 1.76,-1.01 2.58,-1.49 -0.82,0.47 -1.76,1.01 -2.58,1.49zm3.82 -2.24c0.81,-0.46 1.69,-0.98 2.48,-1.43 -0.89,0.51 -1.6,0.92 -2.48,1.43z"/>
   <path class="fil3" d="M4899.89 3182.66c-0.58,0.33 -0.78,0.45 -1.35,0.77 0.46,-0.27 0.88,-0.51 1.35,-0.77z"/>
   <path class="fil3" d="M4851.11 3210.75c1.21,-0.7 2.25,-1.35 3.45,-2.04 -1.13,0.66 -2.31,1.38 -3.45,2.04z"/>
   <path class="fil3" d="M4896.38 3184.68c-0.43,0.25 -0.99,0.58 -1.41,0.76 0.48,-0.23 0.95,-0.5 1.41,-0.76z"/>
   <path class="fil3" d="M4854.7 3208.63c1.21,-0.69 2.42,-1.39 3.62,-2.09 -1.2,0.69 -2.41,1.39 -3.62,2.09z"/>
   <path class="fil3" d="M4892.91 3186.62c-0.53,0.31 -0.95,0.55 -1.49,0.85 0.54,-0.3 0.96,-0.54 1.49,-0.85z"/>
   <path class="fil3" d="M4889.4 3188.64c-0.53,0.31 -0.92,0.53 -1.49,0.85 0.46,-0.27 1.03,-0.59 1.49,-0.85z"/>
   <path class="fil3" d="M4859.39 3205.93c0.81,-0.47 1.66,-0.96 2.46,-1.46 -0.86,0.54 -1.58,0.96 -2.46,1.46z"/>
   <path class="fil3" d="M4885.98 3190.58c-0.38,0.22 -1.12,0.65 -1.56,0.9 0.53,-0.31 1.04,-0.6 1.56,-0.9z"/>
   <path class="fil3" d="M4863.26 3203.66c0.82,-0.47 1.46,-0.84 2.24,-1.29 -0.82,0.47 -1.42,0.82 -2.24,1.29z"/>
   <path class="fil3" d="M4882.37 3192.65c-0.39,0.22 -0.96,0.55 -1.35,0.77 0.43,-0.24 0.89,-0.51 1.35,-0.77z"/>
   <path class="fil3" d="M4866.93 3201.55c0.81,-0.47 1.63,-0.93 2.43,-1.41 -0.81,0.47 -1.63,0.93 -2.43,1.41z"/>
   <path class="fil3" d="M4878.65 3194.8c-0.29,0.16 -0.82,0.47 -1.07,0.61 0.37,-0.21 0.68,-0.38 1.07,-0.61z"/>
   <path class="fil3" d="M4870.5 3199.49c1.2,-0.69 2.37,-1.36 3.62,-2.07 -1.24,0.71 -2.42,1.38 -3.62,2.07z"/>
   <path class="fil5" d="M10012.37 11794.52c-2535.58,1570.01 -5875.74,784.47 -7445.74,-1751.1 -1570.02,-2535.58 -784.47,-5875.76 1751.1,-7445.76l38.61 62.35c-2501.22,1548.74 -3276.09,4843.6 -1727.36,7344.82 1548.72,2501.17 4843.57,3276.08 7344.78,1727.34 2501.17,-1548.71 3276.08,-4843.58 1727.36,-7344.76l62.35 -38.6c1570.02,2535.57 784.51,5875.68 -1751.1,7445.72z"/>
   <path class="fil4" d="M5254.27 12663.59c84.82,147.31 34.18,335.5 -113.13,420.33 -147.31,84.82 -335.5,34.15 -420.32,-113.14 -84.83,-147.32 -34.18,-335.51 113.13,-420.34 147.31,-84.82 335.5,-34.15 420.32,113.15z"/>
  </g>
 </g>
</svg>
