<?xml version="1.0" encoding="UTF-8"?>
<!DOCTYPE svg PUBLIC "-//W3C//DTD SVG 1.1//EN" "http://www.w3.org/Graphics/SVG/1.1/DTD/svg11.dtd">
<!-- Creator: CorelDRAW 2021 (64-Bit) -->
<svg xmlns="http://www.w3.org/2000/svg" xml:space="preserve" width="124.796mm" height="124.796mm" version="1.1" style="shape-rendering:geometricPrecision; text-rendering:geometricPrecision; image-rendering:optimizeQuality; fill-rule:evenodd; clip-rule:evenodd"
viewBox="0 0 12479.6 12479.6"
 xmlns:xlink="http://www.w3.org/1999/xlink"
 xmlns:xodm="http://www.corel.com/coreldraw/odm/2003">
 <defs>
  <style type="text/css">
   <![CDATA[
    .fil4 {fill:#FEFEFE}
    .fil0 {fill:#2B2A29}
    .fil5 {fill:#FFED00}
    .fil3 {fill:#FEFEFE;fill-rule:nonzero}
    .fil1 {fill:#FEFEFE;fill-rule:nonzero}
    .fil2 {fill:#FFED00;fill-rule:nonzero}
   ]]>
  </style>
 </defs>
 <g id="Слой_x0020_1">
  <metadata id="CorelCorpID_0Corel-Layer"/>
  <g id="_2165556782272">
   <g>
    <ellipse class="fil0" transform="matrix(1.1582 0.889247 0.897584 -1.16906 6239.8 6239.8)" rx="4273.02" ry="4233.33"/>
    <path class="fil1" d="M6406.27 11137.75c136.2,-56.55 200.78,-212.81 144.23,-349.01 -56.56,-136.21 -212.83,-200.77 -349.03,-144.22 -136.21,56.56 -200.78,212.82 -144.22,349.03 56.55,136.2 212.81,200.76 349.02,144.2z"/>
    <path class="fil1" d="M7710.36 10547.83l-90.38 31.38 62.17 180.16 90.13 -30.92 90.47 -31.04 -62.26 -180.47c-90.13,30.89 0,0 -90.13,30.89z"/>
    <path class="fil1" d="M6970.33 10734.84l-94.12 15.68 30.83 188.15 188.47 -31 -31.29 -188.33c-93.89,15.5 0,0 -93.89,15.5z"/>
    <path class="fil1" d="M5448.61 10726.99l-93.95 -16.32 -33.1 187.8 94.12 16.63 94.02 16.29 32.89 -188.13c-93.98,-16.27 0,0 -93.98,-16.27z"/>
    <path class="fil1" d="M4709.95 10533.05l-90.04 -31.78 -63.73 179.73 89.72 31.95 0.32 -0.14 89.72 31.91 63.69 -179.75c-89.68,-31.92 0,0 -89.68,-31.92z"/>
    <path class="fil1" d="M4013.24 10219.11l0 0 -83.3 -46.1 -92.56 166.75 83.43 46.41 83.31 46.12 92.57 -166.76c-83.45,-46.42 0,0 -83.45,-46.42z"/>
    <path class="fil1" d="M3378.74 9794.02l-74.61 -59.31 -119.08 148.96 74.67 59.64 74.63 59.34 119.08 -148.96c-74.69,-59.67 0,0 -74.69,-59.67z"/>
    <path class="fil1" d="M2824.12 9268.9l0.14 0.32 -63.87 -71.46 -142.38 127.17 127.1 142.41 142.4 -127.13c-63.39,-71.31 0,0 -63.39,-71.31z"/>
    <path class="fil1" d="M2365.51 8658.63l-50.62 -81.22 -161.9 101.45 101.42 161.92 161.94 -101.44c-50.84,-80.71 0,0 -50.84,-80.71z"/>
    <path class="fil1" d="M2015.16 7979.55l-36.61 -88.18 -176.29 73.19 73.23 176.35 176.28 -73.2c-36.61,-88.16 0,0 -36.61,-88.16z"/>
    <path class="fil2" d="M11098.02 4367.08l-59.39 22.83c1017.21,2646.65 -308.42,5627.43 -2955.08,6644.65 -2646.69,1017.22 -5627.51,-308.42 -6644.73,-2955.07 -1017.22,-2646.69 308.47,-5627.48 2955.16,-6644.71l-22.82 -59.39c-2679.42,1029.81 -4021.5,4047.49 -2991.69,6726.91 1029.8,2679.41 4047.49,4021.46 6726.91,2991.65 2679.38,-1029.79 4021.44,-4047.45 2991.64,-6726.87z"/>
    <path class="fil1" d="M11061.43 4119.99l-176.36 73.23 73.22 176.35 176.37 -73.23 -36.61 -88.17c-36.62,-88.18 0,0 -36.62,-88.18z"/>
    <path class="fil1" d="M10739.25 3499.53l-49.31 -81.73 -163.48 98.65 98.95 163.29 163.16 -98.45c-49.32,-81.76 0,0 -49.32,-81.76z"/>
    <path class="fil1" d="M10277.83 2852.78l-61.19 -73.33 -146.25 122.57 122.27 146.34 146.31 -122.26c-61.14,-73.32 0,0 -61.14,-73.32z"/>
    <path class="fil1" d="M9723.71 2283.63l0 0 -71.6 -63.25 -126.16 143.1 143.07 126.18 126.3 -142.78c-71.61,-63.25 0,0 -71.61,-63.25z"/>
    <path class="fil1" d="M9090.21 1804.39l0 0 -80.25 -51.6 -103.23 160.44 160.46 103.15 103.23 -160.38c-80.21,-51.61 0,0 -80.21,-51.61z"/>
    <path class="fil1" d="M8392.32 1425.59l-86.98 -39.18 -78.24 174.27 173.79 78.03 78.41 -173.91c-86.98,-39.21 0,0 -86.98,-39.21z"/>
    <path class="fil1" d="M6866.9 998.9l0 0 -94.78 -11.74 -23.17 189.42 94.79 11.75 -0.33 0.14 94.78 11.75 23.5 -189.57c-94.79,-11.75 0,0 -94.79,-11.75z"/>
    <path class="fil1" d="M6073.77 961.66l-0.32 0.14 -95.32 2.7 5.34 190.65 95.69 -2.85 95.33 -2.66 -5.39 -190.66c-95.33,2.68 0,0 -95.33,2.68z"/>
    <path class="fil1" d="M5283.76 1044.94l-93.92 17.08 34.53 187.81 187.43 -34.42 -34.18 -187.89c-93.86,17.42 0,0 -93.86,17.42z"/>
    <path class="fil1" d="M4515.7 1246.67l-90.44 31.02 62.26 180.49 180.45 -62.24 -62.26 -180.47c-90.01,31.2 0,0 -90.01,31.2z"/>
    <path class="fil1" d="M2501.06 7681.05c-0.01,0.08 0.03,0.18 0.06,0.25l-0.06 -0.25z"/>
    <path class="fil1" d="M2502.39 7684.54c0.05,0.13 0.11,0.26 0.16,0.39 -0.04,-0.1 -0.11,-0.26 -0.16,-0.39z"/>
    <path class="fil1" d="M2503.77 7688.04c0.06,0.16 0.12,0.29 0.19,0.45 -0.06,-0.13 -0.14,-0.32 -0.19,-0.45z"/>
    <path class="fil1" d="M2565.69 7837.27c-0.39,-0.85 -0.77,-1.76 -1.15,-2.57 0.4,0.84 0.75,1.69 1.15,2.57zm-1.54 -3.51c-0.34,-0.75 -0.67,-1.54 -0.98,-2.29 0.3,0.72 0.65,1.57 0.98,2.29z"/>
    <path class="fil1" d="M2506.71 7695.5c0.03,0.06 0.11,0.26 0.14,0.32 -0.06,-0.13 -0.09,-0.19 -0.14,-0.32z"/>
    <path class="fil1" d="M2562.74 7830.53c-0.3,-0.71 -0.68,-1.56 -0.97,-2.24 0.3,0.71 0.65,1.49 0.97,2.24z"/>
    <path class="fil1" d="M2508.05 7698.9c0.09,0.23 0.19,0.46 0.28,0.68 -0.09,-0.22 -0.18,-0.42 -0.28,-0.68z"/>
    <path class="fil1" d="M2561.31 7827.29c-0.33,-0.79 -0.63,-1.52 -0.98,-2.29 0.31,0.76 0.67,1.53 0.98,2.29z"/>
    <path class="fil1" d="M2509.42 7702.4c0.1,0.23 0.2,0.46 0.29,0.69 -0.06,-0.13 -0.23,-0.56 -0.29,-0.69z"/>
    <path class="fil1" d="M2559.93 7824.05c-0.41,-0.91 -0.7,-1.59 -1.11,-2.49 0.38,0.83 0.73,1.66 1.11,2.49z"/>
    <path class="fil1" d="M2510.88 7706.09c0.03,0.07 0.14,0.34 0.17,0.4 -0.06,-0.14 -0.11,-0.27 -0.17,-0.4z"/>
    <path class="fil1" d="M2558.55 7820.9c-0.94,-2.15 -1.87,-4.33 -2.81,-6.48 0.96,2.21 1.85,4.26 2.81,6.48z"/>
    <path class="fil1" d="M2513.82 7713.45c0.09,0.23 0.16,0.39 0.25,0.62 -0.09,-0.23 -0.15,-0.36 -0.25,-0.62z"/>
    <path class="fil1" d="M2555.52 7813.9c-0.38,-0.92 -0.74,-1.7 -1.12,-2.61 0.37,0.89 0.75,1.72 1.12,2.61z"/>
    <path class="fil1" d="M2515.15 7716.77c0.17,0.4 0.26,0.62 0.43,1.02 -0.17,-0.4 -0.26,-0.62 -0.43,-1.02z"/>
    <path class="fil1" d="M2553.92 7810.14c-0.31,-0.67 -0.6,-1.36 -0.88,-2.05 0.31,0.75 0.54,1.31 0.88,2.05z"/>
    <path class="fil1" d="M2516.58 7720.29c0.12,0.29 0.21,0.6 0.33,0.9 -0.15,-0.36 -0.22,-0.52 -0.33,-0.9z"/>
    <path class="fil1" d="M2552.49 7806.89c-0.25,-0.62 -0.58,-1.41 -0.84,-2.03 0.26,0.62 0.59,1.41 0.84,2.03z"/>
    <path class="fil1" d="M2517.99 7723.86c0.09,0.22 0.21,0.52 0.31,0.75 -0.11,-0.26 -0.22,-0.53 -0.31,-0.75z"/>
    <path class="fil1" d="M2551.15 7803.72c-0.3,-0.72 -0.56,-1.34 -0.85,-2.03 0.3,0.72 0.54,1.28 0.85,2.03zm-1.41 -3.29c-0.28,-0.66 -0.54,-1.28 -0.81,-1.94 0.26,0.63 0.55,1.32 0.81,1.94zm-1.37 -3.2c-0.27,-0.66 -0.58,-1.41 -0.84,-2.03 0.26,0.62 0.59,1.41 0.84,2.03z"/>
    <path class="fil1" d="M2521.05 7731.42c0.12,0.3 0.19,0.47 0.31,0.75 -0.11,-0.26 -0.21,-0.52 -0.31,-0.75z"/>
    <path class="fil1" d="M2547.04 7794.02c-0.91,-2.09 -1.78,-4.18 -2.68,-6.27 0.9,2.09 1.77,4.18 2.68,6.27z"/>
    <path class="fil1" d="M2522.41 7734.81c0.17,0.4 0.25,0.59 0.4,0.96 -0.15,-0.37 -0.23,-0.56 -0.4,-0.96z"/>
    <path class="fil1" d="M2523.8 7738.15c0.15,0.37 0.3,0.8 0.45,1.17 -0.15,-0.37 -0.3,-0.8 -0.45,-1.17z"/>
    <path class="fil1" d="M2543.85 7786.51c-0.26,-0.62 -0.57,-1.38 -0.83,-2 0.26,0.62 0.57,1.38 0.83,2z"/>
    <path class="fil1" d="M2525.2 7741.61c0.14,0.33 0.32,0.75 0.44,1.05 -0.17,-0.4 -0.27,-0.66 -0.44,-1.05z"/>
    <path class="fil1" d="M2542.45 7783.25c-0.26,-0.63 -0.52,-1.25 -0.79,-1.91 0.26,0.62 0.53,1.28 0.79,1.91z"/>
    <path class="fil1" d="M2526.93 7745.88c0.03,0.07 0.03,0.07 0.06,0.13l-0.06 -0.13z"/>
    <path class="fil1" d="M2541.09 7779.97c-0.26,-0.63 -0.52,-1.25 -0.78,-1.87 0.26,0.62 0.52,1.24 0.78,1.87z"/>
    <path class="fil1" d="M2528.38 7749.36c0.12,0.29 0.28,0.68 0.41,0.98 -0.16,-0.36 -0.25,-0.58 -0.41,-0.98z"/>
    <path class="fil1" d="M2539.74 7776.72c-0.26,-0.62 -0.47,-1.14 -0.76,-1.76 0.29,0.62 0.5,1.14 0.76,1.76z"/>
    <path class="fil1" d="M2529.71 7752.65c0.15,0.36 0.39,0.94 0.54,1.31 -0.15,-0.37 -0.39,-0.95 -0.54,-1.31z"/>
    <path class="fil1" d="M2538.38 7773.52c-0.26,-0.62 -0.53,-1.27 -0.79,-1.89 0.31,0.75 0.48,1.14 0.79,1.89z"/>
    <path class="fil1" d="M2531.11 7756.02c0.17,0.4 0.4,0.96 0.55,1.32 -0.15,-0.36 -0.38,-0.92 -0.55,-1.32z"/>
    <path class="fil1" d="M2537.07 7770.38c-0.3,-0.72 -0.62,-1.51 -0.91,-2.2 0.31,0.75 0.6,1.44 0.91,2.2z"/>
    <path class="fil1" d="M2532.6 7759.6c0.15,0.36 0.27,0.66 0.43,1.05 -0.16,-0.39 -0.28,-0.69 -0.43,-1.05z"/>
    <path class="fil1" d="M2535.75 7767.19c-0.45,-1.07 -0.89,-2.15 -1.33,-3.2l0 0c0.46,1.11 0.86,2.06 1.33,3.2z"/>
    <path class="fil1" d="M2576.17 7861.03c-0.05,-0.13 -0.02,-0.06 -0.07,-0.16 0.03,0.06 0.05,0.1 0.07,0.16z"/>
    <path class="fil1" d="M2574.77 7857.85c-0.05,-0.13 -0.13,-0.33 -0.18,-0.46 0.06,0.16 0.12,0.3 0.18,0.46z"/>
    <path class="fil1" d="M2573.35 7854.59c-0.09,-0.11 -0.2,-0.37 -0.26,-0.5 0.06,0.13 0.17,0.39 0.26,0.5z"/>
    <path class="fil1" d="M2571.87 7851.33c-0.05,-0.13 -0.15,-0.36 -0.2,-0.49 0.08,0.19 0.12,0.29 0.2,0.49z"/>
    <path class="fil1" d="M2570.38 7847.92c-0.04,-0.1 -0.08,-0.2 -0.12,-0.3 0.02,0.07 0.09,0.23 0.12,0.3z"/>
    <path class="fil1" d="M2501.12 7681.3c0.46,1.11 0.83,2.11 1.27,3.24 -0.41,-1.06 -0.83,-2.19 -1.27,-3.24zm1.43 3.63c0.38,1.03 0.84,2.11 1.22,3.11 -0.4,-1.03 -0.82,-2.05 -1.22,-3.11zm1.41 3.56c0.91,2.39 1.8,4.64 2.75,7.01 -0.94,-2.35 -1.87,-4.68 -2.75,-7.01z"/>
    <path class="fil1" d="M2565.92 7837.83c-0.1,-0.24 -0.14,-0.34 -0.23,-0.56 0.08,0.19 0.14,0.35 0.23,0.56z"/>
    <path class="fil1" d="M2564.54 7834.7c-0.1,-0.26 -0.28,-0.68 -0.39,-0.94 0.15,0.35 0.24,0.58 0.39,0.94z"/>
    <path class="fil1" d="M2506.85 7695.82c0.38,1.03 0.79,2.09 1.2,3.08 -0.41,-1.06 -0.81,-2.01 -1.2,-3.08z"/>
    <path class="fil1" d="M2563.17 7831.47c-0.2,-0.38 -0.28,-0.58 -0.43,-0.94 0.13,0.34 0.24,0.6 0.43,0.94z"/>
    <path class="fil1" d="M2561.77 7828.29c-0.16,-0.4 -0.31,-0.65 -0.46,-1 0.14,0.32 0.31,0.63 0.46,1z"/>
    <path class="fil1" d="M2508.33 7699.58c0.37,1 0.7,1.79 1.09,2.82 -0.35,-0.93 -0.76,-1.91 -1.09,-2.82z"/>
    <path class="fil1" d="M2560.33 7825c-0.09,-0.23 -0.29,-0.69 -0.4,-0.95 0.13,0.3 0.29,0.69 0.4,0.95z"/>
    <path class="fil1" d="M2509.71 7703.09c0.37,1 0.79,2.01 1.17,3 -0.41,-1.06 -0.77,-1.94 -1.17,-3z"/>
    <path class="fil1" d="M2558.82 7821.56c-0.11,-0.27 -0.16,-0.4 -0.27,-0.66 0.1,0.23 0.18,0.43 0.27,0.66z"/>
    <path class="fil1" d="M2511.05 7706.49c0.94,2.38 1.82,4.58 2.77,6.96 -0.92,-2.31 -1.84,-4.62 -2.77,-6.96z"/>
    <path class="fil1" d="M2555.74 7814.42c-0.05,-0.13 -0.18,-0.43 -0.22,-0.52 0.06,0.13 0.17,0.39 0.22,0.52z"/>
    <path class="fil1" d="M2514.07 7714.07c0.37,0.88 0.73,1.86 1.08,2.7 -0.36,-0.88 -0.71,-1.82 -1.08,-2.7z"/>
    <path class="fil1" d="M2554.4 7811.29c-0.15,-0.36 -0.33,-0.79 -0.48,-1.15 0.15,0.36 0.34,0.82 0.48,1.15z"/>
    <path class="fil1" d="M2515.58 7717.79c0.26,0.73 0.69,1.75 1,2.5 -0.34,-0.81 -0.69,-1.67 -1,-2.5z"/>
    <path class="fil1" d="M2553.04 7808.09c-0.15,-0.36 -0.36,-0.85 -0.55,-1.2 0.22,0.41 0.37,0.77 0.55,1.2z"/>
    <path class="fil1" d="M2516.91 7721.19c0.37,0.88 0.73,1.77 1.08,2.67 -0.36,-0.93 -0.71,-1.79 -1.08,-2.67z"/>
    <path class="fil1" d="M2551.65 7804.86c-0.16,-0.39 -0.35,-0.77 -0.5,-1.14 0.19,0.38 0.33,0.72 0.5,1.14z"/>
    <path class="fil1" d="M2518.3 7724.61c0.89,2.25 1.85,4.57 2.75,6.81 -0.91,-2.27 -1.86,-4.56 -2.75,-6.81z"/>
    <path class="fil1" d="M2550.3 7801.69c-0.16,-0.39 -0.42,-0.9 -0.56,-1.26 0.16,0.39 0.39,0.83 0.56,1.26z"/>
    <path class="fil1" d="M2548.93 7798.49c-0.2,-0.48 -0.32,-0.78 -0.56,-1.26 0.19,0.38 0.4,0.87 0.56,1.26z"/>
    <path class="fil1" d="M2521.36 7732.17c0.36,0.86 0.74,1.78 1.05,2.64 -0.3,-0.83 -0.71,-1.82 -1.05,-2.64z"/>
    <path class="fil1" d="M2547.53 7795.2c-0.15,-0.37 -0.32,-0.78 -0.49,-1.18 0.18,0.42 0.31,0.75 0.49,1.18z"/>
    <path class="fil1" d="M2522.81 7735.77c0.31,0.75 0.68,1.63 0.99,2.38 -0.31,-0.75 -0.68,-1.63 -0.99,-2.38zm1.44 3.55c0.31,0.75 0.65,1.57 0.95,2.29 -0.34,-0.82 -0.61,-1.48 -0.95,-2.29z"/>
    <path class="fil1" d="M2544.36 7787.75c-0.22,-0.53 -0.3,-0.72 -0.51,-1.24 0.17,0.43 0.34,0.82 0.51,1.24z"/>
    <path class="fil1" d="M2525.64 7742.66c0.46,1.12 0.83,2.11 1.29,3.22 -0.43,-1.05 -0.85,-2.17 -1.29,-3.22z"/>
    <path class="fil1" d="M2543.02 7784.51c-0.17,-0.4 -0.38,-0.92 -0.57,-1.26 0.21,0.41 0.39,0.83 0.57,1.26z"/>
    <path class="fil1" d="M2526.99 7746.01c0.46,1.12 0.92,2.23 1.39,3.35 -0.47,-1.12 -0.93,-2.23 -1.39,-3.35z"/>
    <path class="fil1" d="M2541.66 7781.34c-0.21,-0.49 -0.37,-0.88 -0.57,-1.37 0.2,0.49 0.36,0.88 0.57,1.37z"/>
    <path class="fil1" d="M2540.31 7778.1c-0.2,-0.49 -0.35,-0.86 -0.57,-1.38 0.18,0.43 0.39,0.95 0.57,1.38z"/>
    <path class="fil1" d="M2528.79 7750.34c0.31,0.75 0.64,1.54 0.92,2.31 -0.31,-0.83 -0.59,-1.49 -0.92,-2.31z"/>
    <path class="fil1" d="M2538.98 7774.96c-0.15,-0.35 -0.44,-1.04 -0.6,-1.44 0.2,0.49 0.39,0.96 0.6,1.44z"/>
    <path class="fil1" d="M2530.25 7753.96c0.32,0.75 0.56,1.34 0.86,2.06 -0.31,-0.75 -0.54,-1.31 -0.86,-2.06z"/>
    <path class="fil1" d="M2537.59 7771.63c-0.15,-0.37 -0.37,-0.9 -0.52,-1.25 0.17,0.39 0.34,0.82 0.52,1.25z"/>
    <path class="fil1" d="M2531.66 7757.34c0.31,0.75 0.62,1.5 0.94,2.26 -0.32,-0.76 -0.63,-1.51 -0.94,-2.26z"/>
    <path class="fil1" d="M2536.16 7768.18c-0.11,-0.26 -0.31,-0.75 -0.41,-0.99 0.14,0.34 0.26,0.63 0.41,0.99z"/>
    <path class="fil1" d="M2533.03 7760.65c0.46,1.11 0.91,2.19 1.39,3.34 -0.48,-1.15 -0.93,-2.23 -1.39,-3.34z"/>
    <path class="fil3" d="M10612.51 4562.7c-915.34,-2420.05 -3628.88,-3644.23 -6048.92,-2728.9 -2420.05,915.34 -3644.25,3628.89 -2728.91,6048.94l59.5 -22.51c-902.93,-2387.25 304.67,-5063.99 2691.92,-5966.92 2387.21,-902.92 5063.97,304.65 5966.9,2691.9 902.92,2387.22 -304.67,5063.98 -2691.88,5966.89l22.5 59.51c2420.05,-915.33 3644.23,-3628.83 2728.89,-6048.91z"/>
    <path class="fil2" d="M7797.42 1450.75c136.2,-56.56 200.78,-212.82 144.22,-349.02 -56.55,-136.2 -212.82,-200.77 -349.02,-144.21 -136.21,56.55 -200.78,212.81 -144.23,349.02 56.56,136.2 212.82,200.76 349.03,144.21z"/>
    <path class="fil4" d="M11915.78 6646.06c184.36,-2495.14 -1306.2,-4903.92 -3778.98,-5776.43 -2914.39,-1028.33 -6106.2,460.69 -7201.71,3331.5l70.34 29.12c1080.13,-2833.66 4230.01,-4303.66 7106.06,-3288.86 2431.39,857.89 3900.38,3221.24 3730.29,5674.03l74 30.64z"/>
    <path class="fil4" d="M4353.77 11591.23c2929.14,1033.52 6138.15,-476.01 7217.82,-3375.31l-64.75 -44.37c-1058.71,2872.1 -4231.86,4369.73 -7127.76,3347.93 -2429.95,-857.39 -3898.68,-3218.46 -3730.6,-5669.7l-72.58 -49.72c-191.34,2500.39 1300.23,4916.96 3777.87,5791.17z"/>
    <path class="fil0" d="M254.29 5579.73l458.89 314.38 515.1 -1571.6 -648.27 -268.39 -325.72 1525.61zm11125.9 2505.06l458.91 314.39 515.07 -1571.63 -648.27 -268.37 -325.71 1525.61z"/>
   </g>
   <path class="fil3" d="M8540.48 6963.47c32.31,0 59.96,11.65 83.25,34.93 23.28,23.29 34.93,50.94 34.93,83.25 0,33.18 -11.65,61.12 -34.93,84.41 -23.29,23.28 -50.94,34.92 -83.25,34.92 -33.18,0 -61.12,-11.64 -84.41,-34.92 -23.28,-23.29 -34.92,-51.23 -34.92,-84.41 0,-32.31 11.64,-59.96 34.92,-83.25 23.29,-23.28 51.23,-34.93 84.41,-34.93zm851.38 29.69l94.02 0c71.9,0 107.98,25.04 107.98,74.81 0,34.34 -12.8,61.41 -38.41,80.91 -25.91,19.51 -61.13,29.4 -106.25,29.4l-109.15 0c-48.9,0 -82.37,-18.91 -99.84,-57.05 -42.78,38.14 -83.82,57.05 -123.7,57.05l-97.22 0c-62.58,0 -113.22,-22.41 -151.94,-66.95 -38.42,-44.53 -57.63,-102.74 -57.63,-174.93 0,-109.15 37.84,-206.66 113.23,-292.81 75.39,-85.87 160.67,-128.95 255.56,-128.95 73.06,0 126.03,24.74 159.79,74.52 28.53,-42.79 65.79,-64.04 111.78,-64.04 25.03,0 45.99,7.86 62.87,23.87 16.59,16.01 25.03,35.8 25.03,59.09 0,16 -4.66,35.21 -13.68,57.34l-9.31 22.99 -123.13 304.75zm-309.41 3.5l21.26 0c46.85,0 78,-19.22 93.43,-57.34l59.96 -147.58c7.85,-19.5 11.93,-35.51 11.93,-48.61 0,-15.43 -7.57,-28.81 -22.7,-40.17 -15.14,-11.35 -33.47,-17.17 -54.43,-17.17 -41.92,0 -82.66,24.16 -121.96,72.48 -39.58,48.61 -59.38,98.67 -59.38,150.48 0,58.51 23.87,87.91 71.89,87.91zm861.28 -3.5l214.81 0c72.19,0 108.28,25.32 108.28,75.68 0,34.35 -12.81,61.42 -38.13,80.63 -25.32,19.21 -61.13,28.81 -106.82,28.81l-397.31 0c-34.94,0 -62.88,-8.73 -83.54,-26.48 -20.67,-17.47 -30.86,-41.34 -30.86,-71.61 0,-29.11 18.92,-61.99 57.05,-98.96l278.27 -268.66 -94.89 2.91 -21.54 0c-62,0 -93.14,-25.62 -93.14,-76.84 0,-31.73 12.22,-58.8 36.96,-80.63 24.45,-21.83 54.43,-32.89 89.95,-32.89l21.24 0 265.16 0c79.47,0 119.35,33.77 119.35,101 0,34.64 -18.05,69.86 -53.85,105.08l-270.99 261.96z"/>
   <path class="fil3" d="M3579 6422.9l40.35 271.27 -72.07 0 -3.83 -48.7 -25.44 0 -3.82 48.7 -73 0 35.78 -271.27 102.03 0zm-37.43 174.56c-3.38,-30.75 -6.92,-68.82 -10.69,-114.26 -6.98,52.13 -11.38,90.2 -13.26,114.26l23.95 0zm230.45 -174.56l0 54.19 -52.29 162.9 52.29 0 0 54.18 -129.97 0 0 -39.33 54.35 -177.75 -47.84 0 0 -54.19 123.46 0zm100.83 196.45c0,15.77 0.62,25.49 1.88,29.15 1.32,3.72 4.29,5.55 8.92,5.55 4.74,0 7.83,-2.12 9.15,-6.35 1.31,-4.28 2,-14.4 2,-30.35l0 -37.04 -21.95 0 0 39.04zm-70.31 -118.6c0.29,-9.6 0.75,-17.26 1.37,-22.98 1.38,-11.37 5.38,-21.78 12.18,-31.2 6.75,-9.38 15.89,-16.58 27.44,-21.61 11.48,-5.03 24.92,-7.54 40.24,-7.54 14.51,0 27.6,2.39 39.15,7.14 11.6,4.75 20.86,11.83 27.95,21.32 7.03,9.49 11.2,19.83 12.57,30.98 1.31,11.2 2,30.75 2,58.64l0 46.41c0,27.26 -0.63,46.53 -1.94,57.85 -1.26,11.37 -5.32,21.72 -12.06,31.09 -6.74,9.38 -15.89,16.57 -27.38,21.61 -11.55,5.03 -24.92,7.54 -40.24,7.54 -14.52,0 -27.55,-2.4 -39.15,-7.15 -11.55,-4.74 -20.86,-11.83 -27.89,-21.31 -7.03,-9.49 -11.2,-19.84 -12.58,-30.99 -1.31,-11.14 -2,-30.69 -2,-58.58l0 -46.41c0,-2.35 0,-4.63 0,-6.86l92.6 0.17 0 -36.01c0,-12.57 -0.69,-20.69 -2.06,-24.18 -1.43,-3.54 -4.29,-5.26 -8.58,-5.26 -3.65,0 -6.46,1.43 -8.4,4.23 -1.94,2.87 -2.91,11.26 -2.91,25.21l0 7.89 -70.31 0zm203.14 -77.85l49.9 0c33.27,0 55.79,1.26 67.56,3.83 11.78,2.58 21.38,9.15 28.81,19.72 7.43,10.51 11.15,27.38 11.15,50.47 0,21.09 -2.63,35.27 -7.89,42.52 -5.2,7.27 -15.55,11.61 -30.98,13.03 13.94,3.49 23.38,8.12 28.17,13.95 4.81,5.77 7.78,11.15 8.92,16.01 1.2,4.85 1.78,18.23 1.78,40.12l0 71.62 -65.51 0 0 -90.25c0,-14.52 -1.14,-23.49 -3.43,-26.98 -2.23,-3.49 -8.17,-5.2 -17.83,-5.2l0 122.43 -70.65 0 0 -271.27zm70.65 46.3l0 60.36c7.89,0 13.37,-1.09 16.52,-3.26 3.14,-2.17 4.74,-9.26 4.74,-21.21l0 -14.91c0,-8.63 -1.54,-14.29 -4.57,-16.98 -3.03,-2.68 -8.63,-4 -16.69,-4zm128.09 -46.3l70.19 0c22.18,0 38.98,1.72 50.41,5.2 11.43,3.43 20.64,10.46 27.66,20.98 7.04,10.58 10.52,27.55 10.52,50.98 0,15.84 -2.46,26.87 -7.43,33.1 -4.97,6.28 -14.8,11.03 -29.44,14.4 16.35,3.72 27.44,9.83 33.27,18.35 5.83,8.57 8.75,21.66 8.75,39.38l0 25.15c0,18.35 -2.12,31.89 -6.29,40.75 -4.18,8.8 -10.8,14.86 -19.95,18.12 -9.15,3.26 -27.89,4.86 -56.24,4.86l-81.45 0 0 -271.27zm70.65 46.3l0 60.36c2.97,-0.12 5.25,-0.17 6.91,-0.17 6.74,0 11.09,-1.72 12.92,-5.09 1.89,-3.43 2.8,-13.21 2.8,-29.27 0,-8.51 -0.74,-14.46 -2.29,-17.88 -1.54,-3.38 -3.54,-5.55 -6,-6.46 -2.46,-0.86 -7.26,-1.38 -14.34,-1.49zm0 102.54l0 76.13c9.71,-0.34 15.94,-1.89 18.63,-4.68 2.68,-2.81 4,-9.72 4,-20.69l0 -25.39c0,-11.65 -1.2,-18.68 -3.6,-21.2 -2.4,-2.46 -8.75,-3.83 -19.03,-4.17zm254.46 -148.84l40.35 271.27 -72.08 0 -3.83 -48.7 -25.43 0 -3.83 48.7 -72.99 0 35.78 -271.27 102.03 0zm-37.44 174.56c-3.38,-30.75 -6.92,-68.82 -10.69,-114.26 -6.97,52.13 -11.38,90.2 -13.26,114.26l23.95 0zm233.6 -174.56l-51.44 173.07 0 98.2 -65.16 0 0 -98.2 -49.73 -173.07 64.76 0c10,53.1 15.78,88.77 17.21,107.06 4.06,-28.92 10.57,-64.59 19.66,-107.06l64.7 0zm190.74 118.32l-70.65 0 0 -47.1c0,-13.72 -0.75,-22.23 -2.23,-25.66 -1.49,-3.37 -4.8,-5.09 -9.89,-5.09 -5.72,0 -9.37,2.06 -10.91,6.17 -1.55,4.18 -2.35,13.09 -2.35,26.81l0 125.86c0,13.2 0.8,21.77 2.35,25.83 1.54,4.01 5.02,6.01 10.39,6.01 5.21,0 8.63,-2 10.24,-6.06 1.6,-4.01 2.4,-13.49 2.4,-28.41l0 -34.12 70.65 0 0 10.57c0,28.12 -2.01,48.07 -5.95,59.78 -3.94,11.78 -12.74,22.07 -26.3,30.93 -13.59,8.86 -30.29,13.26 -50.18,13.26 -20.63,0 -37.66,-3.72 -51.1,-11.2 -13.37,-7.49 -22.29,-17.84 -26.63,-31.1 -4.34,-13.25 -6.52,-33.15 -6.52,-59.73l0 -79.22c0,-19.55 0.69,-34.17 2,-43.95 1.38,-9.77 5.32,-19.2 12.01,-28.23 6.63,-9.04 15.83,-16.18 27.61,-21.38 11.77,-5.21 25.31,-7.77 40.63,-7.77 20.75,0 37.9,4 51.44,12.05 13.49,8 22.35,18.01 26.64,30.01 4.23,12.01 6.35,30.64 6.35,55.96l0 25.78zm161.01 -118.32l40.35 271.27 -72.08 0 -3.83 -48.7 -25.43 0 -3.83 48.7 -72.99 0 35.78 -271.27 102.03 0zm-37.44 174.56c-3.38,-30.75 -6.92,-68.82 -10.69,-114.26 -6.98,52.13 -11.38,90.2 -13.26,114.26l23.95 0zm261.38 -174.56l0 271.27 -61.74 0 -36.69 -123.35 0 123.35 -58.99 0 0 -271.27 58.99 0 39.44 122.14 0 -122.14 58.99 0zm113 0l0 271.27 -70.65 0 0 -271.27 70.65 0zm199.64 0l0 271.27 -61.73 0 -36.69 -123.35 0 123.35 -58.99 0 0 -271.27 58.99 0 39.44 122.14 0 -122.14 58.98 0z"/>
   <path class="fil3" d="M3791.5 6832.46l0 348.98 -99.22 0 -0.27 -235.59 -39.41 235.59 -69.45 0 -41.62 -230.3 -0.27 230.3 -99.22 0 0 -348.98 146.53 0c4.13,21.11 8.63,45.96 13.5,74.34l16.08 88.6 25.81 -162.94 147.54 0zm74.03 0l189.06 0 0 69.71 -75.51 0 0 66.62 70.55 0 0 66.17 -70.55 0 0 76.77 83.23 0 0 69.71 -196.78 0 0 -348.98zm510.39 0l0 348.98 -99.21 0 -58.98 -158.68 0 158.68 -94.81 0 0 -348.98 94.81 0 63.39 157.14 0 -157.14 94.8 0zm315.28 0l-82.69 222.65 0 126.33 -104.72 0 0 -126.33 -79.93 -222.65 104.1 0c16.07,68.31 25.35,114.2 27.64,137.73 6.53,-37.21 17,-83.09 31.61,-137.73l103.99 0zm305.16 0l0 233.31c0,26.48 -1.1,45.08 -3.21,55.74 -2.21,10.73 -8.54,21.76 -19.11,33.01 -10.57,11.33 -24.53,19.86 -41.8,25.67 -17.36,5.8 -37.75,8.75 -61.28,8.75 -25.99,0 -48.96,-3.46 -68.8,-10.37 -19.94,-6.91 -34.82,-15.88 -44.65,-26.91 -9.92,-11.11 -15.71,-22.8 -17.55,-35.08 -1.74,-12.28 -2.67,-38.16 -2.67,-77.5l0 -206.62 113.56 0 0 261.77c0,15.22 1.01,25 3.03,29.19 2.02,4.27 6.15,6.4 12.31,6.4 6.98,0 11.57,-2.36 13.59,-6.99 2.03,-4.7 3.04,-15.73 3.04,-33.08l0 -257.29 113.54 0zm519.04 0l0 348.98 -99.22 0 -0.28 -235.59 -39.41 235.59 -69.45 0 -41.62 -230.3 -0.27 230.3 -99.22 0 0 -348.98 146.53 0c4.13,21.11 8.63,45.96 13.5,74.34l16.08 88.6 25.81 -162.94 147.55 0zm184.27 252.73c0,20.29 1.01,32.79 3.03,37.5 2.11,4.77 6.89,7.13 14.33,7.13 7.62,0 12.58,-2.72 14.69,-8.16 2.12,-5.52 3.22,-18.53 3.22,-39.05l0 -47.65 -35.27 0 0 50.23zm-113 -152.58c0.45,-12.35 1.19,-22.21 2.2,-29.56 2.21,-14.63 8.64,-28.01 19.57,-40.14 10.84,-12.06 25.53,-21.33 44.1,-27.8 18.46,-6.47 40.05,-9.7 64.67,-9.7 23.34,0 44.37,3.08 62.93,9.19 18.64,6.1 33.53,15.22 44.92,27.42 11.3,12.21 18,25.52 20.22,39.86 2.11,14.41 3.21,39.55 3.21,75.44l0 59.7c0,35.08 -1.02,59.86 -3.12,74.41 -2.03,14.64 -8.55,27.95 -19.39,40.01 -10.84,12.05 -25.53,21.32 -44.01,27.79 -18.55,6.47 -40.05,9.71 -64.67,9.71 -23.34,0 -44.28,-3.09 -62.93,-9.2 -18.56,-6.1 -33.53,-15.22 -44.82,-27.42 -11.3,-12.21 -18.02,-25.52 -20.22,-39.86 -2.11,-14.33 -3.22,-39.48 -3.22,-75.36l0 -59.71c0,-3.02 0,-5.96 0,-8.82l148.83 0.22 0 -46.33c0,-16.17 -1.1,-26.61 -3.31,-31.1 -2.29,-4.56 -6.89,-6.76 -13.77,-6.76 -5.89,0 -10.39,1.83 -13.51,5.44 -3.12,3.67 -4.68,14.48 -4.68,32.42l0 10.15 -113 0zm332.27 -100.15l80.2 0c53.47,0 89.66,1.62 108.58,4.93 18.93,3.31 34.36,11.77 46.31,25.37 11.94,13.53 17.91,35.22 17.91,64.93 0,27.13 -4.23,45.36 -12.67,54.7 -8.37,9.34 -24.99,14.93 -49.8,16.77 22.42,4.48 37.57,10.44 45.29,17.94 7.72,7.42 12.49,14.33 14.33,20.59 1.93,6.24 2.85,23.45 2.85,51.61l0 92.14 -105.28 0 0 -116.11c0,-18.67 -1.84,-30.22 -5.51,-34.7 -3.58,-4.49 -13.14,-6.7 -28.66,-6.7l0 157.51 -113.55 0 0 -348.98zm113.55 59.56l0 77.65c12.68,0 21.49,-1.39 26.54,-4.19 5.05,-2.79 7.63,-11.91 7.63,-27.28l0 -19.19c0,-11.11 -2.48,-18.38 -7.35,-21.84 -4.86,-3.46 -13.87,-5.15 -26.82,-5.15zm482.01 -59.56l-64.77 157.58 70.83 191.4 -116.85 0 -46.03 -149.57 0 149.57 -113.55 0 0 -348.98 113.55 0 0 135.59 50.99 -135.59 105.83 0zm164.05 252.73c0,20.29 1.02,32.79 3.04,37.5 2.11,4.77 6.89,7.13 14.33,7.13 7.62,0 12.59,-2.72 14.7,-8.16 2.11,-5.52 3.22,-18.53 3.22,-39.05l0 -47.65 -35.29 0 0 50.23zm-112.99 -152.58c0.46,-12.35 1.19,-22.21 2.21,-29.56 2.2,-14.63 8.63,-28.01 19.56,-40.14 10.84,-12.06 25.54,-21.33 44.1,-27.8 18.46,-6.47 40.05,-9.7 64.67,-9.7 23.34,0 44.38,3.08 62.93,9.19 18.65,6.1 33.54,15.22 44.92,27.42 11.3,12.21 18.01,25.52 20.22,39.86 2.11,14.41 3.21,39.55 3.21,75.44l0 59.7c0,35.08 -1.01,59.86 -3.12,74.41 -2.02,14.64 -8.55,27.95 -19.38,40.01 -10.85,12.05 -25.54,21.32 -44.01,27.79 -18.56,6.47 -40.06,9.71 -64.67,9.71 -23.34,0 -44.29,-3.09 -62.93,-9.2 -18.56,-6.1 -33.54,-15.22 -44.83,-27.42 -11.3,-12.21 -18.01,-25.52 -20.22,-39.86 -2.11,-14.33 -3.21,-39.48 -3.21,-75.36l0 -59.71c0,-3.02 0,-5.96 0,-8.82l148.83 0.22 0 -46.33c0,-16.17 -1.11,-26.61 -3.31,-31.1 -2.3,-4.56 -6.9,-6.76 -13.79,-6.76 -5.88,0 -10.37,1.83 -13.49,5.44 -3.13,3.67 -4.7,14.48 -4.7,32.42l0 10.15 -112.99 0zm521.88 -100.15l0 69.71 -84.05 209.56 84.05 0 0 69.71 -208.9 0 0 -50.59 87.36 -228.68 -76.89 0 0 -69.71 198.43 0zm171.14 0l0 348.98 -113.55 0 0 -348.98 113.55 0zm-21.78 -67.05l0 56.03 -70 0 0 -56.03 70 0z"/>
   <path class="fil3" d="M5854.43 6419.07c31.33,0 55.66,12.02 72.84,36.05 17.23,24.03 25.85,55.75 25.85,95.23l0 13.61c0,39.09 -8.28,71.27 -24.84,96.38 -16.56,25.17 -36.98,37.7 -61.2,37.76 -28.42,-0.06 -50.18,-10.87 -65.29,-32.61 -15.05,-21.75 -22.6,-51.69 -22.6,-89.77l0 -21.62 140.81 0 0 -3.75c0,-30 -5.37,-54.41 -16.05,-73.17 -10.75,-18.76 -27.25,-28.1 -49.52,-28.1 -10.9,0 -20.53,1.59 -28.86,4.9 -8.28,3.3 -15.5,7.43 -21.6,12.39l-6.77 -27.02c4.31,-4.83 11.36,-9.41 21.27,-13.79 9.9,-4.33 21.87,-6.49 35.96,-6.49zm12.65 249.4c14.82,0 26.79,-8.13 35.97,-24.34 9.12,-16.21 14.54,-37.26 16.28,-63.2l-107.02 0 0 5.79c0,24.79 4.36,44.63 13.04,59.5 8.66,14.82 22.6,22.25 41.73,22.25zm302.64 25.69l-33.07 0 -90.51 -201.72 -0.95 0.38 0 201.34 -33.28 0 0 -271.21 33.28 0 90.46 201.15 1 -0.32 0 -200.83 33.07 0 0 271.21zm136.66 0l0 -271.21 66.57 0c22.49,0 40.06,6.11 52.64,18.24 12.64,12.21 18.97,30.46 18.97,54.81 0,12.9 -2.85,24.28 -8.62,34.13 -5.76,9.92 -13.7,17.11 -23.83,21.75 12.87,3.18 22.77,10.87 29.71,22.95 6.99,12.14 10.46,26.32 10.46,42.59 0,24.99 -6.21,44 -18.63,57.09 -12.42,13.1 -29.54,19.65 -51.36,19.65l-75.91 0zm33.29 -126.45l0 97.78 42.62 0c11.75,0 20.87,-4.13 27.25,-12.4 6.43,-8.26 9.62,-20.09 9.62,-35.48 0,-15.25 -2.74,-27.4 -8.22,-36.42 -5.43,-8.97 -13.88,-13.48 -25.24,-13.48l-46.03 0zm0 -27.21l36.52 0c10.91,0 19.53,-3.75 25.74,-11.25 6.21,-7.51 9.34,-18.38 9.34,-32.49 0,-14.94 -3.24,-26.13 -9.74,-33.57 -6.48,-7.44 -16.05,-11.19 -28.58,-11.19l-33.28 0 0 88.5zm319.53 55.5c0,32.17 -7.33,57.22 -21.98,75.14 -14.61,17.93 -34.24,26.9 -58.8,26.96 -24.28,-0.06 -43.58,-9.03 -57.9,-26.96 -14.27,-17.92 -21.43,-42.97 -21.43,-75.14l0 -74.51c0,-32.04 7.16,-57.09 21.54,-75.21 14.38,-18.18 33.62,-27.21 57.79,-27.21 24.45,0 44.02,9.03 58.74,27.21 14.71,18.12 22.04,43.17 22.04,75.21l0 74.51zm-33.12 -75.08c0,-23.59 -4.14,-41.45 -12.41,-53.72 -8.34,-12.21 -20.09,-18.31 -35.25,-18.31 -14.99,0 -26.46,6.1 -34.46,18.31 -7.94,12.27 -11.97,30.13 -11.97,53.72l0 75.08c0,23.84 4.03,41.9 12.08,54.23 8,12.27 19.47,18.44 34.35,18.44 15.27,0 27.02,-6.17 35.3,-18.38 8.22,-12.2 12.36,-30.33 12.36,-54.29l0 -75.08zm5.2 -131.79l-33.95 0 0 -34.46 33.95 0 0 34.46zm-70.15 0l-34.12 0 0 -34.46 34.12 0 0 34.46zm211.46 165.55l0.95 0 48.9 -131.73 36.86 0 -70.15 173.62 0 97.59 -33.12 0 0 -100 -69.31 -171.21 37.2 0 48.67 131.73zm270.2 -131.73l0 187.93c0,28.1 -7.27,49.65 -21.76,64.65 -14.55,15 -33.57,22.51 -57.06,22.57 -23.27,-0.06 -42.02,-7.57 -56.28,-22.57 -14.27,-15 -21.43,-36.55 -21.43,-64.65l0 -187.93 33.12 0 0 187.93c0,19.26 4.03,33.82 12.14,43.67 8.11,9.92 18.91,14.82 32.45,14.82 13.98,0 25.05,-4.71 33.17,-14.12 8.17,-9.47 12.25,-24.22 12.25,-44.37l0 -187.93 33.4 0zm-26.02 -30.01l-33.95 0 0 -34.45 33.95 0 0 34.45zm-70.15 0l-34.12 0 0 -34.45 34.12 0 0 34.45zm212.02 179.6l-22.77 0 0 121.62 -33.28 0 0 -271.21 33.28 0 0 119.2 19.81 0 63.1 -119.2 39.66 0 -75.07 128.74 80.84 142.47 -40.67 0 -64.9 -121.62z"/>
   <path class="fil5" d="M4970.46 5706.62l211.07 0c121.3,0 181.74,41.32 181.74,123.97 0,59.1 -21.33,105.31 -63.55,138.19 -42.2,33.33 -101.75,49.77 -178.18,49.77l-247.5 0c-89.76,0 -159.08,-19.11 -207.96,-56.87 -48.88,-37.77 -73.32,-91.54 -73.32,-162.2 0,-44.87 18.22,-111.08 54.66,-198.17l333.26 -784.28c-125.98,138.67 -613.67,747.38 -771.96,747.38 -110.89,0 -80.68,-740.89 -80.28,-824.79 -2.82,6.13 -5.66,12.26 -8.38,18.22l-918.62 2010.63c-46.77,102.37 -131.33,181.11 -222.62,252.4 -131.77,102.89 -283.49,153.74 -454.57,153.74 -182.18,0 -330.15,-57.77 -443.91,-172.85 -113.75,-115.09 -170.63,-265.28 -170.63,-450.13 0,-242.62 89.32,-455.91 268.39,-640.31 96.43,-98.2 216.84,-177.3 361.26,-237.73 143.97,-60.43 286.16,-90.65 426.13,-90.65 71.1,0 127.97,15.11 170.63,45.77 42.66,30.22 63.99,70.65 63.99,121.31 0,52.88 -22.66,95.98 -67.99,128.86 -25.77,19.11 -76.42,31.99 -151.08,39.11 -173.3,15.55 -312.82,55.09 -419.02,118.64 -87.98,52.87 -157.74,122.19 -209.29,207.51 -51.99,84.87 -77.76,174.18 -77.76,267.06 0,99.09 25.32,177.29 75.54,234.17 50.21,56.87 119.53,85.31 207.07,85.31 105.31,0 196.4,-44.89 274.16,-134.63 77.76,-89.77 158.64,-250.26 255.95,-475.9l807.21 -1769.1c35.41,-76.54 70.73,-156.36 139.9,-204.04 104.78,-72.2 355.57,-64.95 355.41,142.78 -0.21,252.77 17.03,492.5 20.48,743.51l652.64 -783.29c77.04,-92.46 166.63,-125.75 241.28,-125.75 52.44,0 96.43,16 132.42,47.54 35.99,31.55 54.21,69.77 54.21,115.09 0,28.44 -7.11,59.55 -20.89,93.32l-30.21 72.87 -469.68 1153.54zm2519.17 74.67l156.41 0c109.76,0 164.42,38.66 164.42,115.53 0,52.43 -19.56,93.76 -58.22,123.09 -39.1,29.33 -92.86,43.99 -160.85,43.99l-271.94 0c-53.32,0 -98.21,-16 -134.64,-47.99 -35.99,-32.44 -54.21,-72.87 -54.21,-121.31 0,-29.33 12.44,-73.76 36.88,-132.86l116.42 -283.94c12.44,-29.33 19.11,-53.33 19.99,-71.54 0.89,-20.89 -7.55,-38.66 -25.33,-53.32 -17.77,-14.67 -40.87,-22.22 -68.43,-22.22 -89.75,0 -162.18,67.1 -216.84,201.73l-153.74 378.15c-46.21,114.64 -115.09,171.96 -206.18,171.96 -37.77,0 -69.33,-11.11 -95.54,-33.77 -26.22,-22.66 -39.1,-50.66 -39.1,-83.54 0,-24.44 7.11,-53.32 20.89,-87.53l14.21 -35.11 263.06 -649.2c34.21,-84.42 91.53,-126.64 173.29,-126.64 67.1,0 114.65,29.78 143.53,88.87 92.87,-69.76 181.74,-104.87 265.72,-104.87 81.76,0 149.3,23.56 202.18,70.21 52.88,47.1 79.54,106.65 79.54,178.64 0,39.98 -9.78,83.53 -28.88,131.52l-142.64 350.15zm2514.32 6.98l151.08 0c59.99,0 102.65,8.88 127.97,26.65 25.34,17.78 37.77,46.66 37.77,87.54 0,52.43 -19.55,93.76 -58.2,123.53 -38.66,29.77 -92.87,44.88 -162.19,44.88l-233.29 0c-72.87,0 -121.31,-28.43 -145.75,-84.87 -47.54,56.44 -107.53,84.87 -179.51,84.87l-190.19 0c-76.42,0 -139.52,-23.99 -189.74,-71.54 -50.21,-47.55 -75.53,-107.97 -75.53,-180.85 0,-41.32 11.1,-90.2 33.77,-145.74l176.4 -434.14c49.33,-120.42 116.87,-180.85 202.63,-180.85 37.32,0 68.87,12 94.65,36 26.21,23.54 39.1,52.87 39.1,87.53 0,26.22 -6.67,55.99 -20.44,89.76l-14.66 35.1 -135.53 334.6 -13.78 38.66c-7.99,22.66 -12,39.55 -12.89,50.65 -1.77,38.66 23.56,58.22 75.55,58.22 107.53,0 179.51,-43.55 215.06,-130.2l162.64 -401.7c48.43,-121.75 117.31,-182.62 205.73,-182.62 36.43,0 67.54,11.99 93.76,36.44 26.21,24.43 39.1,53.76 39.1,87.53 0,27.11 -11.11,68.88 -33.77,125.31l-189.74 465.24zm-1758.99 667.06l-88.89 193.71c-96.88,211.16 -211.86,285.94 -345.53,224.6 -47.25,-21.68 -78.33,-53.65 -93.93,-95.7 -15.6,-42.05 -11.77,-87.75 10.56,-136.44 30.78,-67.05 84.54,-114.44 161.32,-142.15 76.28,-27.9 195.57,-42.35 356.47,-44.02zm764.53 -1130.08l-413.12 905.38 0.52 -0.01 -0.51 1.12 1641.68 -0.24c56.09,0 102,45.9 102,102.03 0,56.11 -45.9,102.01 -102,102.01l-1735.19 0 -93.67 204.13c-204.6,445.89 -447.37,603.82 -729.66,474.29 -99.75,-45.78 -165.39,-113.29 -198.33,-202.1 -32.94,-88.8 -24.86,-185.3 22.3,-288.09 64.98,-141.61 178.5,-241.68 340.66,-300.19 113.94,-41.69 273.38,-69.14 477.21,-82.89l68.25 -210.25c-63.99,27.1 -123.09,40.43 -176.86,40.43 -92.42,0 -167.97,-23.55 -225.29,-71.09 -57.76,-47.11 -86.64,-108.87 -86.64,-184.41 0,-46.21 18.66,-115.09 55.98,-207.07l141.31 -350.59 14.21 -36.88c41.78,-98.21 106.21,-147.08 193.3,-147.08 38.21,0 69.76,11.99 95.53,36.44 25.33,24.43 38.22,55.09 38.22,92.86 0,24.89 -11.11,65.77 -33.77,122.64l-127.09 311.5c-19.99,50.65 -30.21,83.09 -31.1,97.75 -2.67,42.66 24.44,63.99 80.43,63.99 39.99,0 80.87,-11.55 122.64,-35.11 41.33,-23.54 67.98,-50.21 79.09,-79.53l174.19 -426.58 12.89 -36.44c40.87,-98.2 105.75,-147.52 194.17,-147.52 37.78,0 69.77,12.44 95.54,37.33 25.33,24.43 38.21,55.09 38.21,91.53 0,25.33 -6.66,54.65 -19.55,87.53l-15.55 35.11zm-3259.4 364.37c0,65.77 48.88,98.65 147.08,98.65l386.59 0c109.75,0 164.41,38.65 164.41,115.52 0,52.44 -19.56,93.77 -58.22,123.09 -38.65,29.33 -92.86,43.99 -162.18,43.99l-368.37 0c-137.75,0 -242.17,-33.77 -314.16,-101.31 -71.54,-67.54 -107.53,-166.63 -107.53,-296.82 0,-167.08 56.43,-311.5 169.74,-432.81 113.31,-121.3 248.4,-182.18 404.36,-182.18 113.76,0 205.29,29.77 274.17,88.87 68.87,59.54 103.53,137.75 103.53,235.07 0,116.86 -47.55,203.51 -143.08,259.94 -52.43,31.99 -131.53,47.99 -235.95,47.99l-260.39 0zm62.21 -237.28l143.08 0c92.87,0 138.2,-20 135.53,-60 -2.67,-45.31 -32.44,-67.98 -89.77,-67.98 -79.97,0 -142.63,42.66 -188.84,127.98z"/>
   <path class="fil1" d="M2821.71 7919.04l-0.11 -0.14c0.09,0.11 0.04,0.02 0.11,0.14zm-4.86 -7.61l-0.11 -0.14 0.11 0.14zm-7.25 -11.38l-0.09 -0.15 0.09 0.15zm-4.8 -7.59c-0.06,-0.1 -0.09,-0.16 -0.15,-0.24 0.08,0.11 0.08,0.11 0.15,0.24zm-4.85 -7.74l-0.07 -0.08 0.07 0.08zm-2.29 -3.63c-0.09,-0.15 -0.11,-0.19 -0.2,-0.33l0.2 0.33zm-4.78 -7.66c-0.11,-0.17 -0.16,-0.26 -0.25,-0.42 0.05,0.1 0.17,0.31 0.25,0.42zm-4.83 -7.78c-0.04,-0.05 -0.15,-0.24 -0.18,-0.3 0.05,0.1 0.1,0.18 0.18,0.3zm-2.28 -3.68c-0.1,-0.15 -0.17,-0.27 -0.25,-0.42 0.12,0.21 0.12,0.21 0.25,0.42zm-4.72 -7.64c-0.08,-0.15 -0.3,-0.48 -0.4,-0.67 0.14,0.25 0.28,0.46 0.4,0.67zm-2.44 -3.99c-0.06,-0.1 -0.07,-0.13 -0.14,-0.22l0.14 0.22zm-2.36 -3.85c-0.09,-0.15 -0.22,-0.37 -0.31,-0.52 0.05,0.09 0.24,0.4 0.31,0.52zm-2.17 -3.54c-0.14,-0.25 -0.35,-0.58 -0.5,-0.82 0.15,0.24 0.38,0.6 0.5,0.82zm-2.62 -4.3c-0.06,-0.1 -0.08,-0.13 -0.14,-0.22l0.14 0.22zm-2.14 -3.52c-0.2,-0.34 -0.29,-0.5 -0.5,-0.82 0.16,0.24 0.35,0.58 0.5,0.82zm-2.47 -4.07c-0.05,-0.1 -0.1,-0.19 -0.17,-0.28l0.17 0.28zm-2.31 -3.82c-0.16,-0.25 -0.28,-0.46 -0.42,-0.71 0.14,0.25 0.26,0.46 0.42,0.71zm-2.2 -3.66c-0.15,-0.24 -0.31,-0.52 -0.47,-0.75 0.16,0.23 0.34,0.55 0.47,0.75zm-2.57 -4.25c-0.09,-0.15 -0.18,-0.3 -0.29,-0.49 0.07,0.12 0.21,0.37 0.29,0.49zm-2.13 -3.56c-0.21,-0.33 -0.31,-0.51 -0.51,-0.85 0.14,0.24 0.36,0.6 0.51,0.85zm-2.43 -4.05c-0.04,-0.06 -0.16,-0.27 -0.19,-0.33 0.07,0.12 0.12,0.21 0.19,0.33zm-2.29 -3.84c-0.15,-0.21 -0.38,-0.61 -0.52,-0.85 0.13,0.22 0.39,0.63 0.52,0.85zm-2.23 -3.72c-0.14,-0.24 -0.29,-0.51 -0.45,-0.76 0.23,0.37 0.26,0.43 0.45,0.76zm-2.53 -4.26c-0.11,-0.19 -0.22,-0.38 -0.31,-0.52 0.08,0.12 0.23,0.39 0.31,0.52zm-2.09 -3.51c-0.2,-0.34 -0.37,-0.65 -0.56,-0.95 0.2,0.33 0.35,0.58 0.56,0.95zm-2.46 -4.16c-0.05,-0.09 -0.14,-0.24 -0.19,-0.34 0.07,0.12 0.12,0.22 0.19,0.34zm-2.22 -3.79c-0.21,-0.33 -0.38,-0.64 -0.58,-0.98 0.2,0.34 0.35,0.61 0.58,0.98zm-2.22 -3.76c-0.14,-0.25 -0.34,-0.55 -0.48,-0.79 0.14,0.24 0.36,0.57 0.48,0.79zm-2.5 -4.26c-0.14,-0.25 -0.28,-0.49 -0.44,-0.72 0.14,0.2 0.3,0.47 0.44,0.72zm-2.09 -3.58c-0.2,-0.34 -0.4,-0.67 -0.6,-1.01 0.22,0.37 0.4,0.67 0.6,1.01zm-2.49 -4.26c-0.05,-0.09 -0.1,-0.15 -0.15,-0.24 0.07,0.12 0.07,0.12 0.15,0.24zm-2.19 -3.74c-0.19,-0.34 -0.33,-0.58 -0.54,-0.92 0.22,0.37 0.33,0.56 0.54,0.92zm-2.18 -3.77c-0.15,-0.24 -0.33,-0.56 -0.47,-0.8 0.14,0.24 0.33,0.58 0.47,0.8zm-2.49 -4.31c-0.16,-0.23 -0.29,-0.45 -0.43,-0.69 0.14,0.24 0.27,0.46 0.43,0.69zm-2.07 -3.55c-0.2,-0.34 -0.37,-0.65 -0.57,-0.99 0.2,0.34 0.37,0.65 0.57,0.99z"/>
  </g>
 </g>
</svg>
